<?xml version="1.0" encoding="utf-8"?>
<!-- Generator: Adobe Illustrator 26.0.3, SVG Export Plug-In . SVG Version: 6.00 Build 0)  -->
<svg version="1.1" xmlns="http://www.w3.org/2000/svg" xmlns:xlink="http://www.w3.org/1999/xlink" x="0px" y="0px"
	 viewBox="0 0 612 181" style="enable-background:new 0 0 612 181;" xml:space="preserve">
<style type="text/css">
	.st0{opacity:0.1;}
	.st1{clip-path:url(#SVGID_00000033366247352702512670000007420582845777011882_);}
	
		.st2{clip-path:url(#SVGID_00000123422112609721565460000002871080170910165130_);fill:url(#SVGID_00000168078710612637470130000004323950966394947262_);}
	.st3{fill:#E3E3E3;}
	.st4{fill:none;stroke:#000000;stroke-width:0.7253;stroke-linejoin:round;stroke-miterlimit:10;}
	.st5{fill:#D6D6D6;}
	.st6{fill:#F2F2F2;}
	.st7{opacity:0.3;}
	.st8{clip-path:url(#SVGID_00000109002382450007255680000005015247708986150293_);fill:#1B1F8A;}
	.st9{opacity:0.2;}
	.st10{clip-path:url(#SVGID_00000109743912196707095430000009990622348415481217_);fill:#1B1F8A;}
	.st11{fill:none;stroke:#000000;stroke-width:0.7253;stroke-miterlimit:10;stroke-dasharray:2.9013,2.9013;}
	.st12{fill:none;stroke:#848484;stroke-width:0.7253;stroke-linejoin:round;stroke-miterlimit:10;}
	.st13{fill:none;stroke:#000000;stroke-width:0.7253;stroke-miterlimit:10;}
	.st14{fill:none;stroke:#000000;stroke-width:1.088;stroke-linejoin:round;stroke-miterlimit:10;}
	.st15{fill:none;}
	.st16{fill:none;stroke:#40005F;stroke-miterlimit:10;}
	.st17{fill:#40005F;}
</style>
<g id="Layer_1">
	<g class="st0">
		<g>
			<defs>
				<rect id="SVGID_1_" x="220.83" y="72.69" width="177.44" height="110.77"/>
			</defs>
			<clipPath id="SVGID_00000059295233710916050830000001011909608285260220_">
				<use xlink:href="#SVGID_1_"  style="overflow:visible;"/>
			</clipPath>
			<g style="clip-path:url(#SVGID_00000059295233710916050830000001011909608285260220_);">
				<defs>
					<polygon id="SVGID_00000007393017795222551720000008264233147295991953_" points="381.06,151.12 398.28,107.82 311.06,72.69 
						240.05,89.89 220.83,131 275.71,183.47 					"/>
				</defs>
				<clipPath id="SVGID_00000040563906620515127650000001763785741944912045_">
					<use xlink:href="#SVGID_00000007393017795222551720000008264233147295991953_"  style="overflow:visible;"/>
				</clipPath>
				
					<linearGradient id="SVGID_00000113321726865404395140000015640304899604693690_" gradientUnits="userSpaceOnUse" x1="59.0078" y1="510.9846" x2="60.0078" y2="510.9846" gradientTransform="matrix(57.6198 -95.7883 -95.7883 -57.6198 45824.6289 35275.1641)">
					<stop  offset="0" style="stop-color:#FFFFFF"/>
					<stop  offset="1" style="stop-color:#231F20"/>
				</linearGradient>
				
					<polygon style="clip-path:url(#SVGID_00000040563906620515127650000001763785741944912045_);fill:url(#SVGID_00000113321726865404395140000015640304899604693690_);" points="
					171.91,154.03 267.98,-5.68 447.21,102.13 351.13,261.84 				"/>
			</g>
		</g>
	</g>
	<path class="st3" d="M220.47,126.28c17.87,17.49,35.74,34.98,53.61,52.47c-0.83-39.6-1.66-79.2-2.5-118.8l-57.24-39.52
		C216.38,55.71,218.43,90.99,220.47,126.28"/>
	<path class="st4" d="M214.34,20.43c2.04,35.28,4.09,70.57,6.13,105.85c17.87,17.49,35.74,34.98,53.61,52.47"/>
	<path class="st5" d="M305.19,52.45c-11.2,2.5-22.41,5-33.62,7.5c0.83,39.6,1.67,79.2,2.5,118.8l102.9-32.71
		c2.19-37.02,4.39-74.05,6.59-111.07c-11.51,2.57-23.02,5.14-34.53,7.71"/>
	<path class="st4" d="M274.08,178.75l102.9-32.71c2.2-37.02,4.39-74.05,6.59-111.07c-11.51,2.57-23.02,5.14-34.53,7.7"/>
	<path class="st6" d="M349.03,42.67c11.51-2.57,23.02-5.14,34.53-7.7c-22.72-10.75-45.43-21.5-68.14-32.26
		c-33.69,5.91-67.39,11.81-101.08,17.72l57.24,39.52c11.2-2.5,22.41-5,33.62-7.5"/>
	<path class="st4" d="M348.82,18.52c-11.13-5.27-22.27-10.54-33.41-15.81c-33.69,5.9-67.39,11.81-101.08,17.72"/>
	<path class="st4" d="M383.56,34.96c-8.97-4.25-17.95-8.49-26.92-12.74"/>
	<g class="st7">
		<g>
			<defs>
				<rect id="SVGID_00000078731569108575863550000002040008645694974088_" x="305.2" y="42.69" width="43.84" height="59.51"/>
			</defs>
			<clipPath id="SVGID_00000030460612094054656910000013798223013348998792_">
				<use xlink:href="#SVGID_00000078731569108575863550000002040008645694974088_"  style="overflow:visible;"/>
			</clipPath>
			<path style="clip-path:url(#SVGID_00000030460612094054656910000013798223013348998792_);fill:#1B1F8A;" d="M305.2,52.45
				l10.9,49.74c10.98-19.84,21.96-39.67,32.94-59.51"/>
		</g>
	</g>
	<g class="st9">
		<g>
			<defs>
				<rect id="SVGID_00000164489740631654913340000002554855514309698225_" x="259.31" y="29.51" width="89.95" height="22.94"/>
			</defs>
			<clipPath id="SVGID_00000150811137146446855300000002521483496161914268_">
				<use xlink:href="#SVGID_00000164489740631654913340000002554855514309698225_"  style="overflow:visible;"/>
			</clipPath>
			<path style="clip-path:url(#SVGID_00000150811137146446855300000002521483496161914268_);fill:#1B1F8A;" d="M349.03,42.69
				l0.23-13.17c-29.98,1.66-59.97,3.33-89.95,5c15.3,5.98,30.59,11.96,45.88,17.94"/>
		</g>
	</g>
	<path class="st11" d="M305.19,52.45c14.61-3.26,29.22-6.52,43.84-9.78"/>
	<path d="M261.08,34.51c0,0.98-0.79,1.77-1.77,1.77c-0.98,0-1.77-0.79-1.77-1.77c0-0.98,0.79-1.77,1.77-1.77
		C260.29,32.74,261.08,33.53,261.08,34.51"/>
	<path d="M351.03,29.51c0,0.98-0.79,1.77-1.77,1.77c-0.98,0-1.77-0.79-1.77-1.77c0-0.98,0.79-1.77,1.77-1.77
		C350.24,27.74,351.03,28.53,351.03,29.51"/>
	<path d="M317.87,102.2c0,0.98-0.79,1.77-1.77,1.77c-0.98,0-1.77-0.79-1.77-1.77s0.79-1.77,1.77-1.77
		C317.08,100.43,317.87,101.22,317.87,102.2"/>
	<path class="st12" d="M349.03,42.67c11.51-2.57,23.02-5.14,34.53-7.7"/>
	<path class="st12" d="M274.08,178.75c-0.83-39.6-1.67-79.2-2.5-118.8l-57.24-39.52"/>
	<path class="st12" d="M305.19,52.45c-11.2,2.5-22.41,5-33.62,7.5c0.83,39.6,1.67,79.2,2.5,118.8"/>
	<path class="st12" d="M214.34,20.43l57.24,39.52c11.2-2.5,22.41-5,33.62-7.5"/>
	<path class="st13" d="M305.2,52.45l10.9,49.74c10.98-19.84,21.96-39.67,32.94-59.51"/>
	<path class="st13" d="M349.03,42.69l0.23-13.17c-29.98,1.66-59.97,3.33-89.95,5c15.3,5.98,30.59,11.96,45.88,17.94"/>
	<polygon class="st14" points="351.03,19.57 315.42,2.71 214.34,20.43 220.47,126.28 274.08,178.75 376.97,146.04 383.56,34.96 
		355.05,21.47 	"/>
	<line class="st15" x1="58.32" y1="-282.43" x2="58.32" y2="509.57"/>
</g>
<g id="vector">
	<g>
		<g>
			<line class="st16" x1="320" y1="77.79" x2="329" y2="47"/>
			<g>
				<path class="st17" d="M321.83,78.22c-0.29,1-1.34,1.57-2.33,1.28s-1.57-1.34-1.28-2.33c0.29-1,1.34-1.57,2.33-1.28
					C321.55,76.18,322.12,77.23,321.83,78.22z"/>
			</g>
		</g>
	</g>
	<g>
		<polygon class="st17" points="328.35,46.51 325.92,38.09 326.91,38.06 329.35,46.49 		"/>
		<g>
			<polygon class="st17" points="324.99,33.13 329.83,40.04 326.52,38.45 324.17,40.16 			"/>
		</g>
	</g>
	<polygon class="st17" points="329.35,46.49 329.48,47.14 328.6,47.5 328.35,46.51 	"/>
</g>
</svg>
