<?xml version="1.0" encoding="utf-8"?>
<!-- Generator: Adobe Illustrator 25.3.1, SVG Export Plug-In . SVG Version: 6.00 Build 0)  -->
<svg version="1.1" id="Layer_1" xmlns="http://www.w3.org/2000/svg" xmlns:xlink="http://www.w3.org/1999/xlink" x="0px" y="0px"
	 viewBox="0 0 230.21 60.98" style="enable-background:new 0 0 230.21 60.98;" xml:space="preserve">
<style type="text/css">
	.st0{opacity:0.75;}
	.st1{opacity:0.2;fill:#00AA00;}
	.st2{opacity:0.3;fill:#00AA00;}
	.st3{opacity:0.15;fill:#00AA00;}
	.st4{opacity:0.4;fill:#00AA00;}
	.st5{fill:none;stroke:#008800;stroke-width:0.5909;stroke-miterlimit:10;}
	.st6{opacity:0.2;}
	.st7{fill:#008800;}
	.st8{opacity:0.1;fill:url(#SVGID_1_);}
	.st9{opacity:0;fill:none;stroke:#000000;stroke-width:1.000000e-06;stroke-miterlimit:10;}
	.st10{opacity:0;clip-path:url(#SVGID_3_);fill:none;stroke:#000000;stroke-width:9.999999e-07;stroke-miterlimit:10;}
	.st11{opacity:0.1;fill:url(#SVGID_4_);}
	.st12{opacity:0.2;fill:#FF000D;}
	.st13{opacity:0.3;fill:#FF000D;}
	.st14{opacity:0.15;fill:#FF000D;}
	.st15{opacity:0.4;fill:#FF000D;}
	.st16{fill:none;stroke:#FF0000;stroke-width:0.5909;stroke-miterlimit:10;}
	.st17{fill:#FF0000;}
	.st18{opacity:0.6;}
	.st19{opacity:0.2;fill:#E59900;}
	.st20{opacity:0.3;fill:#E59900;}
	.st21{opacity:0.15;fill:#E59900;}
	.st22{opacity:0.5;fill:#E59900;}
	.st23{fill:none;stroke:#E59900;stroke-width:0.5909;stroke-miterlimit:10;}
	.st24{fill:#E59900;}
	.st25{opacity:0.1;fill:url(#SVGID_5_);}
</style>
<g>
	<g>
		<g>
			<g class="st0">
				<polygon class="st1" points="118.83,23.94 88.46,11.64 103.18,56.64 137.59,50.23 137.68,17.92 				"/>
				<polygon class="st1" points="88.46,11.64 118.88,49.69 118.83,23.94 				"/>
				<polygon class="st2" points="103.18,56.64 137.59,50.23 118.88,49.69 				"/>
				<polygon class="st3" points="118.88,49.69 137.59,50.23 118.83,23.94 				"/>
				<polygon class="st4" points="88.46,11.64 118.88,49.69 103.18,56.64 				"/>
			</g>
			<g>
				<polygon class="st5" points="118.83,23.94 88.46,11.64 103.18,56.64 137.59,50.23 137.68,17.92 				"/>
				<line class="st5" x1="118.83" y1="23.94" x2="118.88" y2="49.69"/>
				<line class="st5" x1="118.83" y1="23.94" x2="137.59" y2="50.23"/>
				<line class="st5" x1="118.88" y1="49.69" x2="137.59" y2="50.23"/>
				<line class="st5" x1="118.88" y1="49.69" x2="103.18" y2="56.64"/>
			</g>
			<g class="st6">
				<line class="st5" x1="114.89" y1="32.44" x2="137.68" y2="17.92"/>
				<line class="st5" x1="114.89" y1="32.44" x2="88.46" y2="11.64"/>
				<line class="st5" x1="118.83" y1="23.94" x2="114.89" y2="32.44"/>
				<line class="st5" x1="103.18" y1="56.64" x2="114.89" y2="32.44"/>
				<line class="st5" x1="137.59" y1="50.23" x2="114.89" y2="32.44"/>
				<circle class="st7" cx="114.89" cy="32.44" r="1.33"/>
			</g>
			<circle cx="137.56" cy="50.21" r="1.33"/>
			<polyline class="st5" points="103.18,56.64 102.54,29.24 118.83,23.94 			"/>
			<circle cx="118.83" cy="23.94" r="1.33"/>
			<circle cx="103.18" cy="56.64" r="1.33"/>
			<line class="st5" x1="88.46" y1="11.64" x2="118.88" y2="49.69"/>
			<circle cx="88.46" cy="11.64" r="1.33"/>
			<polyline class="st5" points="118.88,49.69 129.61,39.05 137.68,17.92 			"/>
			<circle cx="118.88" cy="49.69" r="1.33"/>
			<circle cx="137.68" cy="17.92" r="1.33"/>
		</g>
		<circle cx="129.61" cy="39.05" r="1.33"/>
		<circle cx="102.54" cy="29.24" r="1.33"/>
	</g>
	<linearGradient id="SVGID_1_" gradientUnits="userSpaceOnUse" x1="114.8859" y1="49.1228" x2="114.8859" y2="58.4916">
		<stop  offset="0" style="stop-color:#FFFFFF"/>
		<stop  offset="1" style="stop-color:#000000"/>
	</linearGradient>
	<polygon class="st8" points="112.88,51.88 87.19,53.04 100.69,60.98 128.11,59.85 142.58,50 126.36,46.49 	"/>
	<path d="M95.63,47.67c0-0.72-1.26-0.99-1.81-0.99c-1.04,0-2.37,0.51-2.37,1.74c0,1.65,2.79,1.7,2.79,3.21
		c0,0.93-1.28,1.13-1.98,1.13c-0.76,0-1.77-0.52-1.77-1.38c0-0.2,0.05-0.4,0.15-0.57l-0.07-0.02c-0.33,0.15-0.93,0.72-0.93,1.1
		c0,1.03,1.59,1.36,2.38,1.36c0.88,0,1.75-0.32,2.39-0.92c0.28-0.27,0.81-0.91,0.81-1.32c0-1.44-2.92-1.74-2.92-3.15
		c0-0.6,0.74-0.84,1.23-0.84c0.72,0,1.34,0.41,1.34,1.19c0,0.16-0.06,0.31-0.18,0.42C95.19,48.63,95.63,48.16,95.63,47.67"/>
</g>
<polygon class="st9" points="107.78,35.46 107.78,35.46 107.78,35.46 107.78,35.46 107.78,35.46 107.78,35.46 107.78,35.46 
	107.78,35.46 107.78,35.46 107.78,35.46 107.78,35.46 107.78,35.46 107.78,35.46 107.78,35.46 107.78,35.46 107.78,35.46 
	107.78,35.46 107.78,35.46 107.78,35.46 107.78,35.46 107.78,35.46 107.78,35.46 107.78,35.46 107.78,35.46 107.78,35.46 
	107.78,35.46 107.78,35.46 107.78,35.46 107.78,35.46 107.78,35.46 107.78,35.46 107.78,35.46 107.78,35.46 107.78,35.46 
	107.78,35.46 107.78,35.46 107.78,35.46 107.78,35.46 107.78,35.46 107.78,35.46 107.78,35.46 107.78,35.46 107.78,35.46 
	107.78,35.46 107.78,35.46 107.78,35.46 107.78,35.46 107.78,35.46 107.78,35.46 107.78,35.46 107.78,35.46 107.78,35.46 
	107.78,35.46 107.78,35.46 107.78,35.46 107.78,35.46 107.78,35.46 107.78,35.46 107.78,35.46 107.78,35.46 107.78,35.46 
	107.78,35.46 107.78,35.46 107.78,35.46 107.78,35.46 107.78,35.46 107.78,35.46 107.78,35.46 107.78,35.46 107.78,35.46 
	107.78,35.46 107.78,35.46 107.78,35.46 107.78,35.46 107.78,35.46 107.78,35.46 107.78,35.46 107.78,35.46 107.78,35.46 
	107.78,35.46 107.78,35.46 107.78,35.46 107.78,35.46 107.78,35.46 107.78,35.46 107.78,35.46 107.78,35.46 107.78,35.46 
	107.78,35.46 107.78,35.46 107.78,35.46 107.78,35.46 107.78,35.46 107.78,35.46 107.78,35.46 107.78,35.46 107.78,35.46 
	107.78,35.46 107.78,35.46 107.78,35.46 107.78,35.46 107.78,35.46 107.78,35.46 107.78,35.46 107.78,35.46 107.78,35.46 
	107.78,35.46 107.78,35.46 107.78,35.46 107.78,35.46 "/>
<g>
	<defs>
		<rect id="SVGID_2_" x="98.65" y="31.89" width="20" height="7"/>
	</defs>
	<clipPath id="SVGID_3_">
		<use xlink:href="#SVGID_2_"  style="overflow:visible;"/>
	</clipPath>
	<path class="st10" d="M108.65,35.39"/>
</g>
<g>
	<g>
		<path d="M83.08,34.96c-10.46-1.07-20.55-4.81-29.07-10.71c8.85,5.4,19,8.47,29.2,8.92L83.08,34.96z"/>
		<g>
			<path d="M86.76,34.23c-1.67-0.72-3.73-1.9-4.98-3.11l0.89,2.9l-1.18,2.8C82.86,35.75,85.03,34.77,86.76,34.23z"/>
		</g>
	</g>
</g>
<g>
	<g>
		<path d="M146.5,33.18c10.2-0.45,20.36-3.53,29.2-8.92c-8.52,5.9-18.61,9.64-29.07,10.71L146.5,33.18z"/>
		<g>
			<path d="M142.95,34.23c1.73,0.55,3.9,1.52,5.27,2.59l-1.18-2.8l0.89-2.9C146.68,32.33,144.62,33.51,142.95,34.23z"/>
		</g>
	</g>
</g>
<g>
	<g>
		<linearGradient id="SVGID_4_" gradientUnits="userSpaceOnUse" x1="29.5241" y1="39.8357" x2="29.5241" y2="49.2045">
			<stop  offset="0" style="stop-color:#FFFFFF"/>
			<stop  offset="1" style="stop-color:#000000"/>
		</linearGradient>
		<polygon class="st11" points="27.52,42.59 1.83,43.76 15.33,51.69 42.74,50.56 57.22,40.71 41,37.2 		"/>
		<g>
			<g class="st0">
				<polygon class="st12" points="32.64,14.96 2.27,2.66 16.98,47.66 51.4,41.25 51.48,8.94 				"/>
				<polygon class="st12" points="2.27,2.66 32.69,40.71 32.64,14.96 				"/>
				<polygon class="st13" points="16.98,47.66 51.4,41.25 32.69,40.71 				"/>
				<polygon class="st14" points="32.69,40.71 51.4,41.25 32.64,14.96 				"/>
				<polygon class="st15" points="2.27,2.66 32.69,40.71 16.98,47.66 				"/>
			</g>
			<g>
				<polygon class="st16" points="32.64,14.96 2.27,2.66 16.98,47.66 51.4,41.25 51.48,8.94 				"/>
				<line class="st16" x1="32.69" y1="40.71" x2="2.27" y2="2.66"/>
				<line class="st16" x1="32.64" y1="14.96" x2="32.69" y2="40.71"/>
				<line class="st16" x1="32.64" y1="14.96" x2="51.4" y2="41.25"/>
				<line class="st16" x1="32.69" y1="40.71" x2="51.4" y2="41.25"/>
				<line class="st16" x1="32.69" y1="40.71" x2="16.98" y2="47.66"/>
			</g>
			<g class="st6">
				<line class="st16" x1="28.69" y1="23.46" x2="51.48" y2="8.94"/>
				<line class="st16" x1="28.69" y1="23.46" x2="2.27" y2="2.66"/>
				<line class="st16" x1="32.64" y1="14.96" x2="28.69" y2="23.46"/>
				<line class="st16" x1="16.98" y1="47.66" x2="28.69" y2="23.46"/>
				<line class="st16" x1="51.4" y1="41.25" x2="28.69" y2="23.46"/>
				<circle class="st17" cx="28.69" cy="23.46" r="1.33"/>
			</g>
			<circle cx="32.64" cy="14.96" r="1.33"/>
			<circle cx="2.27" cy="2.66" r="1.33"/>
			<circle cx="32.69" cy="40.71" r="1.33"/>
			<circle cx="16.98" cy="47.66" r="1.33"/>
			<circle cx="51.48" cy="8.94" r="1.33"/>
			<circle cx="51.45" cy="41.29" r="1.33"/>
		</g>
	</g>
	<g>
		<path d="M1.73,37.89l0.03-0.36c0.54-0.03,0.86-0.07,0.96-0.13c0.04-0.02,0.07-0.05,0.09-0.09c0.05-0.09,0.16-0.51,0.3-1.28
			c0.07-0.39,0.26-1.41,0.54-3.08c0.2-1.11,0.34-2.04,0.42-2.82c-0.49,0-1.05,0.01-1.69,0.04c-0.29,0.01-0.47,0.04-0.54,0.08
			c-0.05,0.03-0.1,0.09-0.14,0.18c-0.07,0.16-0.18,0.52-0.32,1.1H1.06c0.12-0.98,0.18-1.64,0.2-1.96c0.26,0.02,0.55,0.03,0.86,0.04
			c1.17,0.03,2,0.04,2.51,0.04c0.07,0,0.71-0.01,1.92-0.03c0.62-0.01,1-0.02,1.12-0.02c0.06,0,0.17-0.01,0.33-0.03
			c-0.07,0.28-0.12,0.54-0.16,0.76c-0.02,0.13-0.07,0.53-0.16,1.2H7.35c0.01-0.33,0.01-0.53,0.01-0.6c0-0.34-0.01-0.54-0.04-0.6
			c-0.01-0.03-0.04-0.06-0.07-0.08c-0.06-0.03-0.16-0.05-0.3-0.06c-0.59-0.04-1.21-0.06-1.88-0.06c-0.05,0.21-0.11,0.55-0.19,1.03
			l-0.58,3.28c-0.2,1.23-0.33,2.05-0.37,2.46c-0.02,0.13-0.02,0.23-0.02,0.29c0,0.09,0.02,0.16,0.06,0.2s0.13,0.07,0.26,0.08
			c0.07,0.01,0.35,0.03,0.84,0.05l-0.06,0.36c-0.81-0.03-1.38-0.04-1.7-0.04C2.93,37.85,2.4,37.86,1.73,37.89z"/>
	</g>
	<g>
		<path d="M5.5,40.51v-0.2c0.21-0.02,0.32-0.03,0.35-0.04c0.02-0.01,0.03-0.02,0.05-0.04c0.02-0.02,0.1-0.14,0.25-0.36l0.32-0.49
			l2.36-3.74h0.32l0.57,4.13c0.03,0.19,0.05,0.32,0.07,0.38c0.02,0.04,0.04,0.07,0.06,0.09s0.06,0.03,0.11,0.04
			c0.01,0,0.13,0.02,0.36,0.04v0.2l-0.91-0.03c-0.06,0-0.32,0.01-0.79,0.03v-0.2c0.25-0.01,0.4-0.02,0.46-0.03
			c0.04-0.01,0.07-0.03,0.09-0.05c0.02-0.02,0.03-0.06,0.03-0.12c0-0.03,0-0.06,0-0.1l-0.04-0.42l-0.13-1.01h-1.7l-0.54,0.9
			c-0.2,0.35-0.31,0.55-0.34,0.62c-0.01,0.03-0.01,0.05-0.01,0.08c0,0.03,0.01,0.05,0.04,0.07c0.02,0.02,0.08,0.03,0.17,0.04
			c0.04,0,0.16,0.01,0.38,0.02v0.21l-0.92-0.03C5.94,40.49,5.74,40.5,5.5,40.51z M7.5,38.31H9l-0.26-1.98L7.5,38.31z"/>
	</g>
</g>
<g>
	<g>
		<g>
			<g class="st18">
				<polygon class="st19" points="206.5,13.63 176.13,1.33 190.84,46.34 225.25,39.92 225.34,7.61 				"/>
				<polygon class="st19" points="176.13,1.33 206.54,39.38 206.5,13.63 				"/>
				<polygon class="st20" points="190.84,46.34 225.25,39.92 206.54,39.38 				"/>
				<polygon class="st21" points="206.54,39.38 225.25,39.92 206.5,13.63 				"/>
				<polygon class="st22" points="176.13,1.33 206.54,39.38 190.84,46.34 				"/>
			</g>
			<g>
				<polygon class="st23" points="206.5,13.63 176.13,1.33 190.84,46.34 225.25,39.92 225.34,7.61 				"/>
				<line class="st23" x1="206.5" y1="13.63" x2="206.54" y2="39.38"/>
				<polyline class="st23" points="206.54,39.38 216.72,27.97 225.34,7.61 				"/>
				<line class="st23" x1="206.54" y1="39.38" x2="225.25" y2="39.92"/>
				<line class="st23" x1="206.54" y1="39.38" x2="190.84" y2="46.34"/>
			</g>
			<g class="st6">
				<line class="st23" x1="202.55" y1="22.14" x2="225.34" y2="7.61"/>
				<line class="st23" x1="202.55" y1="22.14" x2="176.13" y2="1.33"/>
				<line class="st23" x1="206.5" y1="13.63" x2="202.55" y2="22.14"/>
				<line class="st23" x1="190.84" y1="46.34" x2="202.55" y2="22.14"/>
				<line class="st23" x1="225.25" y1="39.92" x2="202.55" y2="22.14"/>
				<circle class="st24" cx="202.55" cy="22.14" r="1.33"/>
			</g>
			<circle cx="176.13" cy="1.33" r="1.33"/>
			<circle cx="206.54" cy="39.38" r="1.33"/>
			<circle cx="225.34" cy="7.61" r="1.33"/>
			<circle cx="225.22" cy="39.9" r="1.33"/>
			<polyline class="st23" points="190.84,46.34 190.2,18.94 206.5,13.63 			"/>
			<circle cx="206.5" cy="13.63" r="1.33"/>
			<circle cx="190.84" cy="46.34" r="1.33"/>
		</g>
		<linearGradient id="SVGID_5_" gradientUnits="userSpaceOnUse" x1="202.5477" y1="38.4776" x2="202.5477" y2="47.8464">
			<stop  offset="0" style="stop-color:#FFFFFF"/>
			<stop  offset="1" style="stop-color:#000000"/>
		</linearGradient>
		<polygon class="st25" points="200.54,41.23 174.85,42.4 188.36,50.33 215.77,49.2 230.24,39.35 214.03,35.85 		"/>
	</g>
	<g>
		<path d="M176.24,37.5l0.03-0.36c0.54-0.03,0.86-0.07,0.96-0.13c0.04-0.02,0.07-0.05,0.09-0.09c0.05-0.09,0.16-0.51,0.3-1.28
			c0.07-0.39,0.26-1.41,0.54-3.08c0.2-1.11,0.34-2.04,0.42-2.82c-0.49,0-1.05,0.01-1.69,0.04c-0.29,0.01-0.47,0.04-0.54,0.08
			c-0.05,0.03-0.1,0.09-0.14,0.18c-0.07,0.16-0.18,0.52-0.32,1.1h-0.33c0.12-0.98,0.18-1.64,0.2-1.96c0.26,0.02,0.55,0.03,0.86,0.04
			c1.17,0.03,2,0.04,2.51,0.04c0.07,0,0.71-0.01,1.92-0.03c0.62-0.01,1-0.02,1.12-0.02c0.06,0,0.17-0.01,0.33-0.03
			c-0.07,0.28-0.12,0.54-0.16,0.76c-0.02,0.13-0.07,0.53-0.16,1.2h-0.33c0.01-0.33,0.01-0.53,0.01-0.6c0-0.34-0.01-0.54-0.04-0.6
			c-0.01-0.03-0.04-0.06-0.07-0.08c-0.06-0.03-0.16-0.05-0.3-0.06c-0.59-0.04-1.21-0.06-1.88-0.06c-0.05,0.21-0.11,0.55-0.19,1.03
			l-0.58,3.28c-0.2,1.23-0.33,2.05-0.37,2.46c-0.02,0.13-0.02,0.23-0.02,0.29c0,0.09,0.02,0.16,0.06,0.2s0.13,0.07,0.26,0.08
			c0.07,0.01,0.35,0.03,0.84,0.05l-0.06,0.36c-0.81-0.03-1.38-0.04-1.7-0.04C177.44,37.46,176.91,37.47,176.24,37.5z"/>
	</g>
	<g>
		<path d="M180.26,40.12l0.02-0.17l0.24-0.09c0.02-0.01,0.05-0.03,0.1-0.06c0.04-0.13,0.08-0.28,0.11-0.45
			c0.11-0.55,0.23-1.15,0.34-1.81c0.12-0.66,0.2-1.17,0.24-1.54c0.02-0.13,0.02-0.22,0.02-0.28c0-0.07-0.01-0.12-0.04-0.15
			c-0.02-0.03-0.06-0.06-0.1-0.07c-0.06-0.01-0.21-0.02-0.47-0.03v-0.21c0.49,0.02,0.8,0.03,0.93,0.03c0.08,0,0.27,0,0.55-0.01
			c0.16,0,0.31-0.01,0.44-0.01c0.4,0,0.69,0.06,0.88,0.17c0.27,0.16,0.4,0.41,0.4,0.74c0,0.22-0.06,0.42-0.17,0.6
			c-0.12,0.18-0.28,0.35-0.51,0.49c-0.14,0.09-0.33,0.18-0.58,0.27c0.32,0.05,0.54,0.1,0.66,0.15c0.16,0.07,0.28,0.17,0.37,0.31
			c0.09,0.14,0.13,0.31,0.13,0.5c0,0.18-0.04,0.35-0.12,0.52c-0.08,0.17-0.18,0.32-0.31,0.45s-0.3,0.25-0.5,0.36
			s-0.36,0.18-0.49,0.21s-0.32,0.05-0.57,0.05c-0.13,0-0.3,0-0.51-0.01c-0.31-0.01-0.49-0.01-0.54-0.01
			C180.64,40.1,180.47,40.11,180.26,40.12z M181.23,39.78c0.22,0.06,0.47,0.09,0.76,0.09c0.28,0,0.5-0.05,0.67-0.15
			s0.3-0.25,0.4-0.45s0.15-0.42,0.15-0.65c0-0.33-0.1-0.56-0.29-0.69c-0.19-0.13-0.49-0.19-0.89-0.19c-0.15,0-0.3,0.01-0.48,0.02
			c-0.02,0.13-0.05,0.29-0.08,0.49l-0.18,1.11C181.26,39.51,181.24,39.65,181.23,39.78z M181.59,37.48
			c0.14,0.01,0.26,0.01,0.36,0.01c0.22,0,0.41-0.02,0.55-0.06c0.14-0.04,0.28-0.11,0.4-0.21c0.13-0.1,0.23-0.23,0.31-0.39
			s0.12-0.34,0.12-0.54c0-0.24-0.08-0.43-0.22-0.56c-0.15-0.13-0.38-0.2-0.7-0.2c-0.15,0-0.31,0.02-0.49,0.05
			C181.82,36.1,181.71,36.73,181.59,37.48z"/>
	</g>
</g>
<g>
</g>
<g>
</g>
<g>
</g>
<g>
</g>
<g>
</g>
<g>
</g>
<g>
</g>
</svg>
