<?xml version="1.0" encoding="utf-8"?>
<!-- Generator: Adobe Illustrator 23.0.2, SVG Export Plug-In . SVG Version: 6.00 Build 0)  -->
<svg version="1.1" id="Layer_1" xmlns="http://www.w3.org/2000/svg" xmlns:xlink="http://www.w3.org/1999/xlink" x="0px" y="0px"
	 viewBox="0 0 240 59.75" style="enable-background:new 0 0 240 59.75;" xml:space="preserve">
<style type="text/css">
	.st0{opacity:0.2;fill:#1B1F8A;}
	.st1{fill:none;stroke:#000000;stroke-width:0.5;}
	.st2{fill:none;stroke:#000000;stroke-width:0.35;}
	.st3{fill:none;stroke:#000000;stroke-width:0.35;stroke-dasharray:1.6498;}
	.st4{opacity:0.1;fill:#1B1F8A;}
	.st5{fill:none;stroke:#000000;stroke-miterlimit:10;}
</style>
<g>
	<g>
		<path class="st0" d="M84.15,37.79c-2.14,5.06-2.41,9.46-0.39,10.63l0.38,0.37c-7.97-4.78-13.18-12.72-13.18-21.7
			c0-6.93,3.1-13.23,8.17-17.95l0.09,0c-3.58,3.47-5.7,7.79-5.7,12.47C73.51,28.16,77.66,34,84.15,37.79"/>
		<path class="st0" d="M105.51,25.02c-1.55-0.68-2.84-1.38-3.72-2.25c-3.04-3.04-5.04-10.12-14.07-7.76
			c-8.59,2.24-9.55,16.11-3.56,22.87l-0.07-0.07c0.52-1.22,1.14-2.49,1.87-3.75c3.73-6.46,8.78-10.53,11.28-9.09l0.39-0.04
			c0,0,1.77-0.89,3.84-0.89c2.07,0,4.09,0.93,4.09,0.93"/>
		<path class="st0" d="M119.58,48.63c-5.27,3.4-20.08,6.52-35.39-10.74l-0.37-0.33c4.89,2.95,11.17,4.73,18.01,4.73
			c15.63,0,28.31-9.27,28.31-20.71c0-3.76-1.37-7.28-3.76-10.32l0.06-0.03c3.84,4.41,6.12,9.89,6.12,15.83
			c0,8.78-4.98,16.55-12.64,21.37L119.58,48.63z"/>
		<path class="st0" d="M101.75,53.52c-17.01,0-30.8-11.84-30.8-26.46c0-14.61,13.79-26.46,30.8-26.46c17.01,0,30.8,11.84,30.8,26.46
			C132.55,41.68,118.76,53.52,101.75,53.52z M101.71,25.76c2.44,0,3.88-0.76,3.88-0.76s-1.88-0.95-4.07-0.95
			c-2.19,0-3.86,0.91-3.86,0.91S99.27,25.76,101.71,25.76z"/>
		<path class="st1" d="M132.55,27.07c0-14.61-13.79-26.46-30.8-26.46c-17.01,0-30.8,11.84-30.8,26.46
			c0,14.61,13.79,26.46,30.8,26.46C118.76,53.52,132.55,41.68,132.55,27.07z"/>
		<path class="st1" d="M96.52,24.24c0,0,1.86,1.52,5.19,1.52c3.33,0,5.06-1.39,5.06-1.39"/>
		<path class="st1" d="M97.66,24.96c0,0,1.77-0.89,3.84-0.89c2.07,0,4.09,0.93,4.09,0.93"/>
		<path class="st2" d="M119.57,48.65c-5.27,3.4-20.08,6.52-35.39-10.74c-5.99-6.76-5.04-20.63,3.56-22.87
			c9.04-2.36,11.04,4.72,14.07,7.76c0.88,0.88,2.17,1.58,3.72,2.25"/>
		<ellipse class="st2" cx="101.82" cy="21.59" rx="28.31" ry="20.71"/>
		<path class="st2" d="M97.27,24.99c-2.5-1.44-7.55,2.63-11.28,9.09c-3.73,6.46-4.73,12.87-2.24,14.31"/>
		<path class="st3" d="M83.75,48.4c2.5,1.44,7.55-2.63,11.28-9.09c3.73-6.46,4.73-12.87,2.24-14.31"/>
		<path class="st3" d="M105.54,25.04c3.8,1.66,9.18,3.19,13.96,6.94c6.72,5.28,5.35,13.26,0.08,16.66"/>
	</g>
	<circle cx="84.15" cy="37.88" r="0.88"/>
</g>
<g>
	<g>
		<polygon class="st0" points="3.94,6.44 3.94,48.03 45.54,48.03 		"/>
		<rect x="3.94" y="6.44" class="st0" width="41.6" height="41.6"/>
		<rect x="3.94" y="6.44" class="st1" width="41.6" height="41.6"/>
		<line class="st2" x1="3.94" y1="6.44" x2="45.54" y2="48.03"/>
		<polyline class="st1" points="23.81,8.32 25.67,6.47 23.81,4.61 		"/>
		<polyline class="st1" points="23.81,49.89 25.67,48.04 23.81,46.18 		"/>
		<polyline class="st1" points="5.81,29.08 3.95,27.22 2.1,29.08 		"/>
		<polyline class="st1" points="5.81,27.28 3.95,25.42 2.1,27.28 		"/>
		<polyline class="st1" points="47.38,29.08 45.52,27.22 43.66,29.08 		"/>
		<polyline class="st1" points="47.38,27.28 45.52,25.42 43.66,27.28 		"/>
		<circle cx="45.54" cy="48.03" r="0.89"/>
		<circle cx="45.54" cy="6.44" r="0.89"/>
		<circle cx="3.94" cy="48.03" r="0.89"/>
		<circle cx="3.94" cy="6.44" r="0.89"/>
	</g>
	<path d="M1.64,4.99c0.08-0.35,0.19-0.72,0.19-0.85c0-0.13-0.05-0.21-0.19-0.21c-0.29,0-0.69,0.08-1.12,0.13
		C0.47,4.14,0.5,4.22,0.55,4.3L0.9,4.33C1,4.35,1.06,4.43,1.06,4.51c0,0.08,0,0.21-0.08,0.45L0.55,6.83C0.5,7.12,0.39,7.5,0.39,7.66
		c0,0.19,0.11,0.32,0.37,0.32c0.45,0,0.85-0.32,1.25-0.85C1.99,7.04,1.94,6.96,1.83,6.96C1.59,7.23,1.32,7.42,1.24,7.42
		c-0.08,0-0.11-0.03-0.11-0.16c0-0.08,0.05-0.27,0.11-0.51L1.64,4.99 M1.24,2.73c0,0.24,0.21,0.43,0.45,0.43
		c0.21,0,0.43-0.19,0.43-0.43c0-0.24-0.21-0.43-0.43-0.43C1.46,2.3,1.24,2.49,1.24,2.73z"/>
	<path d="M48.83,4.99c0.08-0.35,0.19-0.72,0.19-0.85c0-0.13-0.05-0.21-0.19-0.21c-0.29,0-0.69,0.08-1.12,0.13
		c-0.05,0.08-0.03,0.16,0.03,0.24l0.35,0.03c0.11,0.03,0.16,0.11,0.16,0.19c0,0.08,0,0.21-0.08,0.45l-0.43,1.86
		c-0.05,0.29-0.16,0.67-0.16,0.83c0,0.19,0.11,0.32,0.37,0.32c0.45,0,0.85-0.32,1.25-0.85c-0.03-0.08-0.08-0.16-0.19-0.16
		c-0.24,0.27-0.51,0.45-0.59,0.45s-0.11-0.03-0.11-0.16c0-0.08,0.05-0.27,0.11-0.51L48.83,4.99 M48.43,2.73
		c0,0.24,0.21,0.43,0.45,0.43c0.21,0,0.43-0.19,0.43-0.43c0-0.24-0.21-0.43-0.43-0.43C48.65,2.3,48.43,2.49,48.43,2.73z"/>
	<path d="M1.64,51.03c0.08-0.35,0.19-0.72,0.19-0.85c0-0.13-0.05-0.21-0.19-0.21c-0.29,0-0.69,0.08-1.12,0.13
		c-0.05,0.08-0.03,0.16,0.03,0.24l0.35,0.03c0.11,0.03,0.16,0.11,0.16,0.19c0,0.08,0,0.21-0.08,0.45l-0.43,1.86
		c-0.05,0.29-0.16,0.67-0.16,0.83c0,0.19,0.11,0.32,0.37,0.32c0.45,0,0.85-0.32,1.25-0.85C1.99,53.08,1.94,53,1.83,53
		c-0.24,0.27-0.51,0.45-0.59,0.45c-0.08,0-0.11-0.03-0.11-0.16c0-0.08,0.05-0.27,0.11-0.51L1.64,51.03 M1.24,48.77
		c0,0.24,0.21,0.43,0.45,0.43c0.21,0,0.43-0.19,0.43-0.43c0-0.24-0.21-0.43-0.43-0.43C1.46,48.34,1.24,48.53,1.24,48.77z"/>
	<path d="M47.83,51.03c0.08-0.35,0.19-0.72,0.19-0.85c0-0.13-0.05-0.21-0.19-0.21c-0.29,0-0.69,0.08-1.12,0.13
		c-0.05,0.08-0.03,0.16,0.03,0.24l0.35,0.03c0.11,0.03,0.16,0.11,0.16,0.19c0,0.08,0,0.21-0.08,0.45l-0.43,1.86
		c-0.05,0.29-0.16,0.67-0.16,0.83c0,0.19,0.11,0.32,0.37,0.32c0.45,0,0.85-0.32,1.25-0.85C48.18,53.08,48.13,53,48.02,53
		c-0.24,0.27-0.51,0.45-0.59,0.45c-0.08,0-0.11-0.03-0.11-0.16c0-0.08,0.05-0.27,0.11-0.51L47.83,51.03 M47.43,48.77
		c0,0.24,0.21,0.43,0.45,0.43c0.21,0,0.43-0.19,0.43-0.43c0-0.24-0.21-0.43-0.43-0.43C47.65,48.34,47.43,48.53,47.43,48.77z"/>
</g>
<g>
	<polygon class="st0" points="163.3,8.39 133.26,48.64 193.34,48.64 	"/>
	<path class="st1" d="M163.3,8.39"/>
	<line class="st1" x1="133.26" y1="48.64" x2="193.34" y2="48.64"/>
	<line class="st1" x1="178.32" y1="28.52" x2="163.3" y2="8.39"/>
	<g>
		<g>
			<line class="st1" x1="193.34" y1="48.64" x2="178.32" y2="28.52"/>
			<g>
				<polygon points="181.47,28.64 181.37,29.23 178.46,28.7 178.14,31.64 177.54,31.58 177.93,28 				"/>
			</g>
		</g>
	</g>
	<g>
		<g>
			<line class="st1" x1="148.28" y1="28.52" x2="133.26" y2="48.64"/>
			<g>
				<polygon points="145.12,28.64 145.23,29.23 148.14,28.7 148.46,31.64 149.05,31.58 148.66,28 				"/>
			</g>
		</g>
	</g>
	<line class="st1" x1="163.3" y1="8.39" x2="148.28" y2="28.52"/>
	<circle cx="163.3" cy="8.39" r="0.88"/>
	<circle cx="193.34" cy="48.64" r="0.88"/>
	<circle cx="133.26" cy="48.64" r="0.88"/>
</g>
<g>
	<path d="M164,3.33c0.08-0.35,0.19-0.72,0.19-0.85c0-0.13-0.05-0.21-0.19-0.21c-0.29,0-0.69,0.08-1.12,0.13
		c-0.05,0.08-0.03,0.16,0.03,0.24l0.35,0.03c0.11,0.03,0.16,0.11,0.16,0.19c0,0.08,0,0.21-0.08,0.45l-0.43,1.86
		c-0.05,0.29-0.16,0.67-0.16,0.83c0,0.19,0.11,0.32,0.37,0.32c0.45,0,0.85-0.32,1.25-0.85c-0.03-0.08-0.08-0.16-0.19-0.16
		c-0.24,0.27-0.51,0.45-0.59,0.45c-0.08,0-0.11-0.03-0.11-0.16c0-0.08,0.05-0.27,0.11-0.51L164,3.33 M163.6,1.07
		c0,0.24,0.21,0.43,0.45,0.43c0.21,0,0.43-0.19,0.43-0.43c0-0.24-0.21-0.43-0.43-0.43C163.82,0.64,163.6,0.83,163.6,1.07z"/>
</g>
<g>
	<path d="M131.52,50.69c0,0.24,0.19,0.43,0.43,0.43c0.24,0,0.43-0.19,0.43-0.43s-0.19-0.43-0.43-0.43
		C131.7,50.26,131.52,50.45,131.52,50.69 M131.92,52.95c0.08-0.37,0.16-0.72,0.16-0.85c0-0.13-0.05-0.21-0.16-0.21
		c-0.29,0-0.69,0.08-1.12,0.13c-0.08,0.08-0.05,0.16,0,0.24l0.37,0.03c0.11,0.03,0.16,0.11,0.16,0.19c0,0.08-0.03,0.21-0.08,0.45
		l-0.29,1.33c-0.19,0.88-0.27,1.44-0.43,2.08c-0.21,0.77-0.51,0.93-0.69,0.93c-0.24,0-0.19-0.37-0.64-0.37
		c-0.11,0-0.24,0.08-0.24,0.27c0,0.29,0.32,0.45,0.72,0.45c1.14,0,1.62-1.68,2.08-3.89L131.92,52.95z"/>
</g>
<g>
	<path d="M194.39,50.69c0,0.24,0.19,0.43,0.43,0.43c0.24,0,0.43-0.19,0.43-0.43s-0.19-0.43-0.43-0.43
		C194.58,50.26,194.39,50.45,194.39,50.69 M194.79,52.95c0.08-0.37,0.16-0.72,0.16-0.85c0-0.13-0.05-0.21-0.16-0.21
		c-0.29,0-0.69,0.08-1.12,0.13c-0.08,0.08-0.05,0.16,0,0.24l0.37,0.03c0.11,0.03,0.16,0.11,0.16,0.19c0,0.08-0.03,0.21-0.08,0.45
		l-0.29,1.33c-0.19,0.88-0.27,1.44-0.43,2.08c-0.21,0.77-0.51,0.93-0.69,0.93c-0.24,0-0.19-0.37-0.64-0.37
		c-0.11,0-0.24,0.08-0.24,0.27c0,0.29,0.32,0.45,0.72,0.45c1.14,0,1.62-1.68,2.08-3.89L194.79,52.95z"/>
</g>
<g>
	<path class="st4" d="M201.24,46.9c0-2.79,8.45-5.05,18.88-5.05c10.43,0,18.88,2.26,18.88,5.05L220.12,2.1L201.24,46.9z"/>
	<path class="st0" d="M201.24,46.9c0,2.79,8.45,5.05,18.88,5.05c10.43,0,18.88-2.26,18.88-5.05L220.12,2.1L201.24,46.9z"/>
	<path class="st3" d="M239,46.9c0-2.79-8.45-5.05-18.88-5.05c-10.43,0-18.88,2.26-18.88,5.05"/>
	<path class="st1" d="M201.24,46.9c0,2.79,8.45,5.05,18.88,5.05c10.43,0,18.88-2.26,18.88-5.05"/>
	<polyline class="st1" points="239,46.9 220.12,2.1 201.24,46.9 	"/>
	<circle cx="220.12" cy="2.1" r="0.77"/>
	<line class="st2" x1="220.12" y1="2.1" x2="228.8" y2="51.38"/>
	<circle cx="228.8" cy="51.38" r="0.77"/>
</g>
<path d="M217.08,2.96c0.09-0.34,0.2-0.71,0.21-0.85c0-0.13-0.05-0.21-0.18-0.22c-0.29-0.01-0.69,0.06-1.12,0.11
	c-0.06,0.08-0.03,0.16,0.02,0.24l0.35,0.04c0.11,0.03,0.16,0.11,0.16,0.19c0,0.08-0.01,0.21-0.09,0.45l-0.47,1.85
	c-0.06,0.29-0.18,0.66-0.18,0.82c0,0.19,0.1,0.32,0.36,0.33c0.45,0.01,0.86-0.3,1.27-0.82c-0.02-0.08-0.08-0.16-0.18-0.16
	c-0.25,0.26-0.52,0.44-0.6,0.44c-0.08,0-0.11-0.03-0.1-0.16c0-0.08,0.06-0.26,0.12-0.5L217.08,2.96 M216.74,0.69
	c-0.01,0.24,0.2,0.43,0.44,0.44c0.21,0.01,0.43-0.18,0.44-0.42c0.01-0.24-0.2-0.43-0.42-0.44C216.96,0.27,216.74,0.45,216.74,0.69z"
	/>
<path d="M230.43,52.63c0,0.24,0.19,0.43,0.43,0.43c0.24,0,0.43-0.19,0.43-0.43c0-0.24-0.19-0.43-0.43-0.43
	C230.62,52.21,230.43,52.39,230.43,52.63 M230.83,54.89c0.08-0.37,0.16-0.72,0.16-0.85s-0.05-0.21-0.16-0.21
	c-0.29,0-0.69,0.08-1.12,0.13c-0.08,0.08-0.05,0.16,0,0.24l0.37,0.03c0.11,0.03,0.16,0.11,0.16,0.19c0,0.08-0.03,0.21-0.08,0.45
	l-0.29,1.33c-0.19,0.88-0.27,1.44-0.43,2.08c-0.21,0.77-0.51,0.93-0.69,0.93c-0.24,0-0.19-0.37-0.64-0.37
	c-0.11,0-0.24,0.08-0.24,0.27c0,0.29,0.32,0.45,0.72,0.45c1.14,0,1.62-1.68,2.08-3.89L230.83,54.89z"/>
<g>
	<g>
		<path class="st5" d="M69.83,11.52c-2.53-0.38-5.55-0.67-9.07-0.67c-2.91,0-5.78,0.2-8.58,0.6"/>
		<g>
			<polygon points="73.3,12.15 68.72,9.34 69.56,11.54 68.07,13.35 			"/>
		</g>
		<g>
			<polygon points="48.7,12.05 53.32,9.3 52.45,11.49 53.92,13.32 			"/>
		</g>
	</g>
</g>
<g>
	<g>
		<path class="st5" d="M207.98,11.93c-4.36-1.26-8.96-1.93-13.73-1.93c-6.55,0-12.8,1.27-18.52,3.58"/>
		<g>
			<polygon points="211.33,13.03 207.21,9.58 207.72,11.87 205.98,13.45 			"/>
		</g>
		<g>
			<polygon points="172.51,15.02 176.26,11.17 175.99,13.5 177.88,14.9 			"/>
		</g>
	</g>
</g>
<path d="M88.25,35.21c0.08-0.35,0.19-0.72,0.19-0.85c0-0.13-0.05-0.21-0.19-0.21c-0.29,0-0.69,0.08-1.12,0.13
	c-0.05,0.08-0.03,0.16,0.03,0.24l0.35,0.03c0.11,0.03,0.16,0.11,0.16,0.19c0,0.08,0,0.21-0.08,0.45l-0.43,1.86
	C87.1,37.34,87,37.72,87,37.88c0,0.19,0.11,0.32,0.37,0.32c0.45,0,0.85-0.32,1.25-0.85c-0.03-0.08-0.08-0.16-0.19-0.16
	c-0.24,0.27-0.51,0.45-0.59,0.45c-0.08,0-0.11-0.03-0.11-0.16c0-0.08,0.05-0.27,0.11-0.51L88.25,35.21 M87.85,32.95
	c0,0.24,0.21,0.43,0.45,0.43c0.21,0,0.43-0.19,0.43-0.43c0-0.24-0.21-0.43-0.43-0.43C88.06,32.52,87.85,32.71,87.85,32.95z"/>
</svg>
