<?xml version="1.0" encoding="utf-8"?>
<!-- Generator: Adobe Illustrator 25.3.1, SVG Export Plug-In . SVG Version: 6.00 Build 0)  -->
<svg version="1.1" id="Layer_1" xmlns="http://www.w3.org/2000/svg" xmlns:xlink="http://www.w3.org/1999/xlink" x="0px" y="0px"
	 viewBox="0 0 240 162" style="enable-background:new 0 0 240 162;" xml:space="preserve">
<style type="text/css">
	.st0{opacity:0.15;}
	.st1{fill:url(#SVGID_1_);}
	.st2{opacity:0.2;fill:#1B1F8A;}
	.st3{opacity:0.3;fill:#1B1F8A;}
	.st4{opacity:0.25;fill:#1B1F8A;}
	.st5{opacity:0.09;fill:#1B1F8A;}
	.st6{opacity:0.12;fill:#1B1F8A;}
	.st7{opacity:0.17;fill:#1B1F8A;}
	.st8{opacity:0.15;fill:#1B1F8A;}
	.st9{opacity:0.35;fill:#1B1F8A;}
	.st10{fill:none;stroke:#000000;stroke-width:0.45;stroke-miterlimit:10;}
	.st11{fill:none;stroke:#FFFFFF;stroke-width:0.45;stroke-miterlimit:10;}
	.st12{fill:none;stroke:#000000;stroke-width:0.75;stroke-miterlimit:10;}
	.st13{fill:#FFFFFF;stroke:#000000;stroke-width:0.45;stroke-miterlimit:10;}
	.st14{fill:none;stroke:#000000;stroke-width:0.55;stroke-miterlimit:10;stroke-dasharray:1.8;}
	.st15{fill:url(#SVGID_2_);}
	.st16{opacity:0.5;}
	.st17{fill:url(#SVGID_3_);}
	.st18{fill:#BA9A85;}
	.st19{fill:none;stroke:#000000;stroke-width:0.35;stroke-miterlimit:10;}
	.st20{fill:none;stroke:#000000;stroke-width:0.247;stroke-miterlimit:10;}
	.st21{fill:#FFFEF8;}
	.st22{fill:#E8E6E2;}
	.st23{fill:none;stroke:#000000;stroke-width:0.5;stroke-miterlimit:10;}
	.st24{opacity:0.1;}
</style>
<g class="st0">
	<linearGradient id="SVGID_1_" gradientUnits="userSpaceOnUse" x1="111.3206" y1="160.3277" x2="118.9873" y2="142.9944">
		<stop  offset="0" style="stop-color:#FFFFFF"/>
		<stop  offset="1" style="stop-color:#1B1F8A"/>
	</linearGradient>
	<polygon class="st1" points="121.68,142.77 115.16,162 106,162 116.82,142.94 	"/>
</g>
<g>
	<polygon class="st2" points="232.5,147.74 235.88,162 237.5,162 	"/>
	<polygon class="st2" points="232.5,147.74 233.12,162 235.88,162 	"/>
	<polygon class="st2" points="227.88,162 233.12,162 232.5,147.74 	"/>
	<polygon class="st3" points="144,84.75 97.25,86 135.93,99.65 	"/>
	<polygon class="st4" points="144,84.75 136,99.25 185.12,109.25 	"/>
	<polygon class="st2" points="232.81,148 185.12,109.25 135.5,99 	"/>
	<polygon class="st3" points="11.41,145.26 3.75,162 14.38,162 18.5,156.38 	"/>
	<polygon class="st2" points="18.5,156.38 14.38,162 17.62,162 	"/>
	<polygon class="st2" points="18.5,156.38 17.62,162 24.88,162 	"/>
	<polygon class="st5" points="119.33,142.83 94.5,162 125,162 	"/>
	<polygon class="st6" points="119.33,142.83 125,162 227.88,162 232.81,148 	"/>
	<polygon class="st7" points="119.33,142.83 232.81,148 135.93,99.65 	"/>
	<polygon class="st2" points="73.5,115.25 18.5,156.38 24.88,162 63.25,162 	"/>
	<polygon class="st6" points="73.72,115.19 63.25,162 94.5,162 119.33,142.83 	"/>
	<polygon class="st8" points="73.72,115.19 119.33,142.83 136,99.25 	"/>
	<polygon class="st4" points="97.25,86 73.72,115.19 135.93,99.65 	"/>
	<polygon class="st4" points="49.5,107.25 18.5,156.38 73.72,115.19 	"/>
	<polygon class="st3" points="49.5,107.25 73.72,115.19 97.25,86 	"/>
	<polygon class="st2" points="185.12,109.25 232.81,148 215,127.5 	"/>
	<polygon class="st4" points="180.54,99.33 185.12,109.25 215,127.5 	"/>
	<polygon class="st3" points="144,84.75 185.12,109.25 180.5,99.25 	"/>
	<polygon class="st9" points="97.67,86.29 144,84.75 112.74,82.75 	"/>
	<polygon class="st9" points="49.5,107.25 76.71,91.08 97.25,86 	"/>
	<line class="st10" x1="136" y1="99.25" x2="121.69" y2="136.17"/>
	<line class="st11" x1="73.5" y1="115.25" x2="136" y2="99.25"/>
	<line class="st11" x1="120" y1="144.99" x2="125" y2="162"/>
	<line class="st11" x1="121.68" y1="142.77" x2="232.5" y2="147.74"/>
	<line class="st11" x1="232.5" y1="147.74" x2="136" y2="99.25"/>
	<polygon class="st4" points="11.25,145 18.5,156.38 49.5,107.25 	"/>
	<polygon class="st9" points="42.56,112.05 11.25,145 49.5,107.25 	"/>
</g>
<polyline class="st12" points="186.27,103.98 180.5,99.25 144,84.75 112.25,82.75 97.25,86 76.25,91 49.5,107.25 42,112.5 
	11.25,145 3.75,162 "/>
<polyline class="st12" points="237.5,162 232.5,147.74 215,127.5 194.2,110.46 "/>
<line class="st13" x1="73.5" y1="115.25" x2="116.76" y2="141.12"/>
<line class="st10" x1="117.29" y1="144.24" x2="94.5" y2="162"/>
<line class="st10" x1="73.5" y1="115.25" x2="63.25" y2="162"/>
<line class="st10" x1="97.25" y1="86" x2="73.5" y2="115.25"/>
<line class="st10" x1="71.13" y1="114.46" x2="73.5" y2="115.25"/>
<line class="st10" x1="49.5" y1="107.25" x2="56.27" y2="109.51"/>
<line class="st10" x1="18.5" y1="156.38" x2="73.5" y2="115.25"/>
<line class="st10" x1="11.25" y1="145" x2="18.5" y2="156.38"/>
<line class="st10" x1="49.5" y1="107.25" x2="18.5" y2="156.38"/>
<line class="st10" x1="11.25" y1="145" x2="49.5" y2="107.25"/>
<line class="st10" x1="49.5" y1="107.25" x2="97.25" y2="86"/>
<line class="st10" x1="18.5" y1="156.38" x2="17.62" y2="162"/>
<line class="st10" x1="24.88" y1="162" x2="18.5" y2="156.38"/>
<line class="st10" x1="14.38" y1="162" x2="18.5" y2="156.38"/>
<line class="st14" x1="121.06" y1="144.31" x2="142.12" y2="162"/>
<polyline class="st14" points="121.69,141.25 167,116.38 185.12,109.25 "/>
<line class="st10" x1="185.12" y1="109.25" x2="180.5" y2="99.25"/>
<line class="st10" x1="185.12" y1="109.25" x2="144" y2="84.75"/>
<line class="st10" x1="185.12" y1="109.25" x2="136" y2="99.25"/>
<line class="st10" x1="136" y1="99.25" x2="144" y2="84.75"/>
<line class="st10" x1="97.25" y1="86" x2="136" y2="99.25"/>
<line class="st10" x1="144" y1="84.75" x2="97.25" y2="86"/>
<line class="st10" x1="185.12" y1="109.25" x2="232.5" y2="147.74"/>
<line class="st10" x1="232.5" y1="147.74" x2="233.12" y2="162"/>
<line class="st10" x1="232.5" y1="147.74" x2="227.88" y2="162"/>
<line class="st10" x1="232.5" y1="147.74" x2="235.88" y2="162"/>
<line class="st10" x1="185.12" y1="109.25" x2="215" y2="127.5"/>
<polyline class="st14" points="185.12,109.25 192.63,127.71 195.9,146.1 194.12,162 "/>
<polyline class="st14" points="97.25,86 106,106.88 116.58,135.81 "/>
<g>
	<circle cx="185.12" cy="109.25" r="1.17"/>
	<circle cx="232.81" cy="148" r="1.17"/>
	<circle cx="180.54" cy="99.33" r="1.17"/>
	<circle cx="215" cy="127.5" r="1.17"/>
	<circle cx="144" cy="84.75" r="1.17"/>
	<circle cx="112.74" cy="82.75" r="1.17"/>
	<circle cx="76.71" cy="91.08" r="1.17"/>
	<circle cx="49.5" cy="107.25" r="1.17"/>
	<circle cx="42.56" cy="112.05" r="1.17"/>
	<circle cx="11.41" cy="145.26" r="1.17"/>
	<circle cx="18.5" cy="156.38" r="1.17"/>
	<circle cx="97.67" cy="86.29" r="1.17"/>
	<circle cx="73.72" cy="115.19" r="1.17"/>
</g>
<g>
	<linearGradient id="SVGID_2_" gradientUnits="userSpaceOnUse" x1="117.6212" y1="181.3333" x2="117.6212" y2="115.3258">
		<stop  offset="0" style="stop-color:#1F1F29"/>
		<stop  offset="1" style="stop-color:#9B7C6B"/>
	</linearGradient>
	<path class="st15" d="M112.74,21.5l4.08,121.44c0,1.24,1.08,2.19,2.43,2.19s2.43-1.11,2.43-2.35L122.5,21.5
		c0-1.24-2.18-2.25-4.88-2.25S112.74,20.26,112.74,21.5z"/>
	<g class="st16">
		<linearGradient id="SVGID_3_" gradientUnits="userSpaceOnUse" x1="114.1253" y1="82.2656" x2="123.1253" y2="82.0989">
			<stop  offset="0" style="stop-color:#FFFFFF"/>
			<stop  offset="0.3016" style="stop-color:#9B7C6B"/>
			<stop  offset="0.6256" style="stop-color:#9B7C6B"/>
			<stop  offset="1" style="stop-color:#FFFFFF"/>
		</linearGradient>
		<path class="st17" d="M112.74,21.5l4.08,121.44c0,1.24,1.08,2.19,2.43,2.19s2.43-1.11,2.43-2.35L122.5,21.5
			c0-1.24-2.18-2.25-4.88-2.25S112.74,20.26,112.74,21.5z"/>
	</g>
	<ellipse class="st18" cx="117.62" cy="21.5" rx="4.88" ry="2.25"/>
	<path class="st19" d="M122.5,21.5c0-1.24-2.18-2.25-4.88-2.25s-4.88,1.01-4.88,2.25"/>
	<path class="st19" d="M112.74,21.5l4.08,121.44c0,1.24,1.08,2.19,2.43,2.19s2.43-1.11,2.43-2.35L122.5,21.5"/>
	<path class="st20" d="M112.74,21.5c0,1.24,2.18,2.25,4.88,2.25s4.88-1.01,4.88-2.25"/>
</g>
<g>
	<g>
		<g>
			<polygon class="st21" points="114.36,69.56 100.33,38.08 99.58,27.5 105.33,32 113.69,49.59 			"/>
			<polygon class="st22" points="113.92,56.67 103.25,34.08 99.72,29.42 100.33,38.08 114.36,69.56 			"/>
		</g>
		<polyline class="st20" points="114.36,69.56 100.33,38.08 99.58,27.5 105.33,32 113.69,49.59 		"/>
		<polyline class="st20" points="99.72,29.42 103.25,34.08 113.92,56.67 		"/>
	</g>
	<g>
		<polygon class="st21" points="112.74,21.33 59,2 56.5,3.08 51.58,9.08 60.58,19.83 113.44,42.16 		"/>
		<polygon class="st22" points="112.83,24 56.5,3.08 51.58,9.08 60.58,19.83 113.44,42.16 		"/>
		<polygon class="st23" points="112.74,21.33 59,2 56.5,3.08 51.58,9.08 60.58,19.83 113.44,42.16 		"/>
		<polygon class="st19" points="112.83,24 56.5,3.08 51.58,9.08 60.58,19.83 113.44,42.16 		"/>
		<g id="_x31_yKrZ9_1_">
			<g>
				<path d="M104.65,28.83c0.39,0.06,0.78,0.11,1.17,0.18c0.11,0.02,0.16,0.11,0.18,0.22c0.02,0.12,0.04,0.25,0.06,0.38
					c0.01,0.1,0.04,0.13,0.14,0.1c0.17-0.05,0.34-0.09,0.52-0.13c0.48-0.12,0.85,0.07,1.15,0.45c0.11,0.14,0.19,0.3,0.26,0.46
					c0.04,0.08,0.08,0.1,0.16,0.08c0.23-0.05,0.47-0.09,0.7-0.13c0.59-0.1,1.07,0.33,1.28,0.75c0.17,0.35,0.23,0.73,0.26,1.12
					c0.04,0.54,0.06,1.08,0.1,1.63c0.01,0.1,0.03,0.2,0.04,0.3c0.04,0.29,0.21,0.47,0.45,0.58c0.16,0.08,0.18,0.11,0.15,0.32
					c-0.04-0.01-0.08-0.02-0.11-0.04c-0.58-0.24-1.17-0.48-1.75-0.72c-0.14-0.06-0.16-0.13-0.11-0.29c0.01,0,0.03,0,0.05,0
					c0.24,0.04,0.33-0.01,0.33-0.28c-0.01-0.49-0.03-0.99-0.06-1.48c-0.01-0.25-0.03-0.51-0.07-0.76c-0.08-0.43-0.36-0.68-0.77-0.71
					c-0.13-0.01-0.27,0.01-0.41,0.02c-0.07,0-0.09,0.04-0.08,0.11c0.05,0.61,0.09,1.21,0.14,1.82c0.02,0.23,0.06,0.46,0.11,0.68
					c0.04,0.17,0.15,0.29,0.3,0.37c0.12,0.07,0.15,0.14,0.1,0.31c-0.05-0.02-0.09-0.03-0.13-0.05c-0.51-0.21-1.02-0.42-1.53-0.63
					c-0.15-0.06-0.17-0.11-0.13-0.3c0.01,0,0.03,0,0.05,0c0.23,0.04,0.29,0,0.31-0.25c0.01-0.11,0.01-0.22,0.01-0.33
					c-0.04-0.59-0.07-1.17-0.12-1.76c-0.03-0.38-0.2-0.68-0.55-0.83c-0.21-0.08-0.41-0.05-0.62,0.01c-0.03,0.01-0.06,0.07-0.06,0.1
					c0.05,0.76,0.11,1.52,0.17,2.28c0.02,0.25,0.12,0.45,0.35,0.56c0.11,0.05,0.1,0.16,0.08,0.29c-0.22-0.1-0.43-0.19-0.64-0.27
					c-0.36-0.15-0.72-0.29-1.07-0.43c-0.16-0.06-0.18-0.1-0.14-0.3c0.07,0.02,0.14,0.04,0.21,0.05c0.18,0.03,0.26-0.03,0.26-0.22
					c0-0.28-0.02-0.57-0.04-0.85c-0.03-0.48-0.07-0.95-0.11-1.43c-0.02-0.3-0.13-0.54-0.4-0.67
					C104.64,29.05,104.64,29.03,104.65,28.83z"/>
				<path d="M86.46,23.3c-0.02,0.12-0.03,0.34-0.07,0.56c-0.15,0.67-0.65,0.89-1.22,0.54c-0.44-0.27-0.76-0.67-1-1.13
					c-0.5-0.94-0.76-1.96-0.75-3.04c0-0.25,0.04-0.52,0.12-0.76c0.14-0.45,0.5-0.62,0.93-0.47c0.29,0.11,0.54,0.29,0.76,0.52
					c0.41,0.44,0.68,0.97,0.87,1.54C86.32,21.76,86.44,22.47,86.46,23.3z M85.63,23.34c-0.06-0.93-0.17-1.73-0.35-2.52
					c-0.09-0.4-0.21-0.79-0.41-1.15c-0.05-0.09-0.11-0.17-0.19-0.24c-0.17-0.15-0.33-0.1-0.39,0.12c-0.04,0.15-0.06,0.31-0.05,0.47
					c0.03,0.5,0.07,1,0.14,1.49c0.08,0.61,0.18,1.22,0.37,1.81c0.09,0.27,0.19,0.54,0.4,0.75c0.2,0.19,0.38,0.14,0.43-0.14
					C85.61,23.7,85.62,23.46,85.63,23.34z"/>
				<path d="M99.9,29.08c0.06,0.28,0.09,0.58,0.17,0.85c0.08,0.28,0.29,0.44,0.53,0.55c0.15,0.07,0.18,0.15,0.13,0.3
					c-0.03-0.01-0.06-0.02-0.09-0.03c-0.66-0.27-1.33-0.55-1.99-0.82c-0.13-0.05-0.16-0.12-0.12-0.29c0.09,0.02,0.18,0.05,0.27,0.07
					c0.18,0.03,0.29-0.04,0.3-0.23c0.01-0.24-0.01-0.49-0.03-0.73c0-0.03-0.06-0.08-0.1-0.1c-0.36-0.15-0.71-0.31-1.07-0.44
					c-0.21-0.08-0.34-0.21-0.45-0.41c-0.08-0.15-0.09-0.26-0.01-0.42c0.4-0.73,0.78-1.46,1.17-2.19c0.06-0.12,0.15-0.23,0.22-0.35
					c0.04-0.07,0.08-0.09,0.16-0.05c0.14,0.06,0.28,0.12,0.42,0.17c0.08,0.03,0.12,0.08,0.12,0.17c0.06,0.61,0.12,1.23,0.18,1.84
					c0.05,0.52,0.1,1.04,0.15,1.56c0.01,0.09,0.04,0.15,0.13,0.18c0.19,0.07,0.37,0.14,0.55,0.23c0.06,0.03,0.12,0.08,0.14,0.13
					c0.02,0.05,0,0.13-0.03,0.18c-0.03,0.03-0.11,0.04-0.15,0.03c-0.15-0.05-0.29-0.12-0.44-0.18c-0.04-0.02-0.08-0.03-0.11-0.04
					C99.93,29.06,99.91,29.07,99.9,29.08z M99.04,28.3c-0.09-0.89-0.18-1.77-0.27-2.64c-0.01,0-0.03,0-0.04,0
					c-0.02,0.04-0.05,0.08-0.07,0.12c-0.3,0.62-0.59,1.25-0.89,1.87c-0.05,0.1-0.03,0.14,0.07,0.18c0.37,0.15,0.74,0.3,1.11,0.45
					C98.96,28.28,98.98,28.28,99.04,28.3z"/>
				<path d="M93.98,23.69c0.16-0.02,0.3-0.04,0.43-0.06c0.34-0.05,0.68-0.1,1.01-0.15c0.07-0.01,0.14-0.02,0.21-0.01
					c0.13,0.01,0.19,0.1,0.2,0.23c0.05,0.64,0.1,1.28,0.17,1.92c0.08,0.79,0.18,1.58,0.27,2.38c0.05,0.46,0.27,0.79,0.68,0.97
					c0.16,0.07,0.19,0.14,0.16,0.31c-0.04-0.01-0.08-0.02-0.11-0.04c-0.7-0.29-1.4-0.58-2.09-0.87c-0.03-0.01-0.08-0.02-0.09-0.04
					c-0.03-0.07-0.04-0.14-0.06-0.21c0.05,0,0.1-0.01,0.14,0c0.38,0.12,0.53,0.01,0.5-0.41c-0.03-0.45-0.09-0.89-0.14-1.33
					c-0.07-0.6-0.14-1.21-0.21-1.81c-0.04-0.35-0.12-0.43-0.45-0.47c-0.09-0.01-0.19-0.02-0.28-0.01c-0.13,0.02-0.19-0.03-0.24-0.14
					C94.04,23.87,94.01,23.78,93.98,23.69z"/>
				<path d="M71.81,15.38c0.14,0.06,0.28,0.12,0.41,0.18c0.35,0.14,0.7,0.28,1.05,0.42c0.14,0.05,0.17,0.12,0.15,0.28
					c-0.23-0.01-0.25,0.02-0.14,0.26c0.14,0.28,0.28,0.55,0.43,0.83c0.02,0.04,0.05,0.07,0.09,0.13c0.04-0.09,0.07-0.16,0.09-0.22
					c0.04-0.12,0.09-0.24,0.13-0.36c0.07-0.19,0.03-0.33-0.14-0.42c-0.12-0.07-0.13-0.16-0.13-0.3c0.06,0.02,0.1,0.04,0.15,0.06
					c0.28,0.11,0.55,0.23,0.83,0.33c0.16,0.06,0.18,0.09,0.17,0.29c-0.03,0-0.05,0-0.08,0c-0.2-0.02-0.34,0.07-0.43,0.26
					c-0.1,0.21-0.21,0.41-0.3,0.62c-0.03,0.06-0.03,0.16,0,0.22c0.29,0.53,0.58,1.06,0.88,1.58c0.14,0.24,0.32,0.44,0.55,0.59
					c0.08,0.05,0.11,0.13,0.09,0.28c-0.14-0.06-0.28-0.12-0.42-0.18c-0.36-0.15-0.71-0.29-1.07-0.44c-0.13-0.05-0.16-0.11-0.14-0.27
					c0.03,0,0.05,0,0.08,0c0.09,0.01,0.11-0.05,0.08-0.12c-0.02-0.05-0.04-0.11-0.06-0.16c-0.14-0.29-0.28-0.58-0.43-0.87
					c-0.02-0.04-0.05-0.07-0.09-0.13c-0.05,0.12-0.08,0.21-0.12,0.3c-0.02,0.06-0.05,0.13-0.07,0.2c-0.12,0.33-0.11,0.35,0.14,0.59
					c0.06,0.05,0.07,0.15,0.1,0.23c-0.01,0.01-0.02,0.02-0.03,0.03c-0.14-0.06-0.29-0.13-0.43-0.19c-0.19-0.08-0.38-0.16-0.58-0.23
					c-0.13-0.05-0.16-0.14-0.15-0.27c0.01-0.01,0.02-0.01,0.03-0.01c0.28,0.05,0.46-0.07,0.56-0.36c0.07-0.18,0.16-0.36,0.24-0.53
					c0.04-0.08,0.04-0.15,0-0.23c-0.31-0.53-0.61-1.06-0.91-1.59c-0.12-0.2-0.25-0.39-0.46-0.5C71.82,15.61,71.8,15.52,71.81,15.38z
					"/>
				<path d="M101.31,27.43c-0.21-0.07-0.21-0.07-0.21-0.29c-0.01-0.48-0.01-0.96-0.02-1.44c0-0.02,0-0.04,0-0.07
					c0.02,0.01,0.04,0.01,0.05,0.02c0.17,0.19,0.39,0.26,0.61,0.35c0.7,0.28,1.4,0.56,2.1,0.84c0.11,0.04,0.14,0.1,0.1,0.22
					c-0.51,1.43-0.91,2.89-1.28,4.36c-0.03,0.13-0.07,0.16-0.19,0.11c-0.14-0.06-0.29-0.09-0.44-0.13
					c-0.15-0.04-0.17-0.09-0.11-0.24c0.43-1.08,0.86-2.16,1.29-3.24c0.04-0.09,0.07-0.19,0.1-0.28c0.03-0.07,0.02-0.12-0.06-0.15
					c-0.48-0.19-0.95-0.38-1.43-0.57c-0.18-0.07-0.32,0-0.4,0.19C101.37,27.2,101.34,27.32,101.31,27.43z"/>
				<path d="M78.46,16.72c0.09,0.04,0.17,0.06,0.24,0.1c0.03,0.02,0.06,0.08,0.06,0.12c0.03,0.41,0.06,0.81,0.08,1.22
					c0.01,0.1,0.04,0.15,0.13,0.18c0.18,0.07,0.36,0.14,0.53,0.22c0.04,0.02,0.08,0.08,0.09,0.13c0.02,0.13,0.03,0.27,0.04,0.43
					c-0.25-0.1-0.48-0.19-0.73-0.29c0,0.06-0.01,0.09,0,0.13c0.02,0.23,0.04,0.45,0.05,0.68c0,0.1,0.05,0.14,0.12,0.17
					c0.18,0.07,0.35,0.15,0.53,0.21c0.07,0.03,0.1,0.07,0.1,0.15c0,0.13,0.02,0.25,0.03,0.4c-0.25-0.1-0.48-0.19-0.74-0.3
					c0.03,0.48,0.06,0.94,0.09,1.42c-0.1-0.04-0.18-0.06-0.25-0.11c-0.03-0.02-0.05-0.09-0.05-0.13c-0.03-0.39-0.05-0.78-0.07-1.17
					c0-0.09-0.03-0.14-0.12-0.17c-0.17-0.06-0.33-0.13-0.52-0.21c0.03,0.48,0.06,0.94,0.08,1.41c-0.1-0.04-0.19-0.07-0.26-0.11
					c-0.03-0.02-0.05-0.08-0.05-0.12c-0.03-0.39-0.06-0.78-0.08-1.17c-0.01-0.11-0.04-0.17-0.14-0.2c-0.13-0.04-0.26-0.11-0.39-0.16
					c-0.07-0.02-0.1-0.06-0.1-0.14c-0.01-0.13-0.02-0.26-0.03-0.41c0.21,0.08,0.4,0.16,0.6,0.24c0-0.08,0-0.14,0-0.21
					c-0.01-0.2-0.03-0.4-0.04-0.6c0-0.1-0.04-0.14-0.12-0.17c-0.14-0.05-0.29-0.11-0.43-0.17c-0.04-0.02-0.08-0.07-0.09-0.11
					c-0.02-0.14-0.03-0.28-0.04-0.44c0.21,0.08,0.4,0.16,0.62,0.24c-0.03-0.49-0.06-0.95-0.09-1.44c0.1,0.04,0.2,0.07,0.28,0.12
					c0.03,0.01,0.04,0.07,0.04,0.11c0.03,0.41,0.05,0.81,0.07,1.22c0,0.09,0.04,0.14,0.12,0.17c0.17,0.06,0.33,0.13,0.52,0.21
					C78.52,17.67,78.49,17.21,78.46,16.72z M78.66,19.62c-0.02-0.24-0.05-0.45-0.04-0.66c0.01-0.22-0.07-0.33-0.27-0.37
					c-0.12-0.03-0.23-0.09-0.37-0.14c0.02,0.31,0.03,0.58,0.05,0.85c0,0.03,0.02,0.07,0.05,0.08
					C78.26,19.46,78.45,19.54,78.66,19.62z"/>
				<path d="M83.41,23.62c-0.27-0.12-0.53-0.23-0.78-0.34c-0.42-0.17-0.84-0.34-1.26-0.51c-0.12-0.05-0.16-0.13-0.12-0.27
					c0.09,0.02,0.18,0.05,0.27,0.06c0.16,0.02,0.25-0.05,0.26-0.22c0.01-0.11,0.01-0.23-0.01-0.34c-0.16-1-0.33-1.99-0.5-2.99
					c-0.06-0.35-0.13-0.41-0.46-0.44c-0.06-0.01-0.11-0.01-0.17,0c-0.21,0.01-0.21,0.01-0.3-0.2c-0.02-0.05-0.04-0.11-0.06-0.17
					c0.03-0.01,0.06-0.03,0.08-0.03c0.41-0.08,0.82-0.16,1.22-0.24c0.24-0.05,0.31,0.04,0.35,0.29c0.08,0.62,0.17,1.25,0.27,1.87
					c0.12,0.75,0.25,1.49,0.37,2.24c0.07,0.46,0.28,0.81,0.7,0.98C83.39,23.37,83.43,23.47,83.41,23.62z"/>
				<path d="M70.12,16.3c0.04,0.16,0.07,0.33,0.12,0.49c0.14,0.45,0.35,0.84,0.74,1.09c0.11,0.07,0.24,0.12,0.36,0.16
					c0.2,0.06,0.31,0.02,0.53-0.15c0.12,0.13,0.13,0.23,0.06,0.38c-0.16,0.34-0.45,0.46-0.79,0.34c-0.52-0.19-0.91-0.55-1.21-1.03
					c-0.34-0.56-0.56-1.17-0.58-1.85c-0.01-0.2,0.02-0.41,0.07-0.61c0.12-0.4,0.45-0.56,0.83-0.42c0.55,0.2,0.93,0.61,1.16,1.16
					c0.11,0.26,0.18,0.55,0.26,0.83c0.01,0.05,0,0.12-0.02,0.16c-0.01,0.02-0.09,0-0.13-0.01c-0.41-0.16-0.81-0.33-1.22-0.5
					c-0.05-0.02-0.1-0.04-0.15-0.06C70.14,16.29,70.13,16.29,70.12,16.3z M70.91,16.31c0.01-0.01,0.03-0.02,0.04-0.03
					c-0.04-0.17-0.08-0.35-0.14-0.52c-0.08-0.25-0.19-0.5-0.39-0.67c-0.18-0.16-0.38-0.07-0.4,0.17c-0.01,0.12,0,0.25,0.01,0.38
					c0.03,0.34,0.03,0.34,0.33,0.46C70.54,16.16,70.73,16.24,70.91,16.31z"/>
				<path d="M62.78,13.28c0.06,0.2,0.09,0.36,0.15,0.52c0.15,0.43,0.35,0.82,0.73,1.06c0.1,0.07,0.22,0.12,0.34,0.15
					c0.2,0.06,0.32,0.01,0.5-0.16c0.11,0.12,0.13,0.22,0.07,0.37c-0.14,0.35-0.41,0.47-0.74,0.34c-0.47-0.18-0.84-0.5-1.12-0.93
					c-0.36-0.57-0.6-1.19-0.65-1.88c-0.02-0.21,0-0.43,0.06-0.63c0.1-0.38,0.41-0.53,0.76-0.4c0.43,0.16,0.75,0.47,0.99,0.88
					c0.19,0.33,0.32,0.69,0.4,1.07c0.01,0.05,0,0.1-0.01,0.15c-0.05,0-0.1,0-0.14-0.01c-0.39-0.16-0.78-0.32-1.18-0.48
					C62.91,13.32,62.86,13.31,62.78,13.28z M63.57,13.32c-0.03-0.12-0.04-0.2-0.06-0.28c-0.09-0.33-0.2-0.64-0.43-0.89
					c-0.08-0.08-0.16-0.16-0.28-0.11c-0.12,0.05-0.15,0.17-0.14,0.29c0.01,0.18,0.04,0.36,0.06,0.55c0.01,0.09,0.06,0.13,0.13,0.16
					c0.12,0.05,0.25,0.1,0.37,0.15C63.32,13.22,63.43,13.27,63.57,13.32z"/>
				<path d="M67.21,13.55c-0.03-0.16-0.07-0.3-0.09-0.44c-0.03-0.15-0.05-0.29-0.07-0.44c-0.01-0.09,0.02-0.14,0.11-0.15
					c0.11-0.01,0.21-0.02,0.32-0.04c0.13-0.02,0.18,0.03,0.21,0.17c0.06,0.36,0.14,0.72,0.2,1.08c0.02,0.08,0.05,0.13,0.13,0.16
					c0.14,0.05,0.29,0.11,0.43,0.17c0.22,0.09,0.25,0.14,0.25,0.44c-0.24-0.05-0.44-0.18-0.69-0.25c0.01,0.06,0.01,0.11,0.02,0.15
					c0.15,0.69,0.29,1.38,0.45,2.06c0.04,0.18,0.12,0.36,0.2,0.52c0.09,0.17,0.25,0.25,0.43,0.23c0.14-0.01,0.16,0.1,0.19,0.18
					c0.01,0.05-0.04,0.14-0.09,0.17c-0.23,0.14-0.46,0.08-0.68-0.05c-0.41-0.25-0.61-0.65-0.71-1.12c-0.16-0.76-0.32-1.51-0.48-2.27
					c-0.02-0.12-0.07-0.2-0.19-0.23c-0.05-0.01-0.1-0.04-0.15-0.06c-0.1-0.04-0.19-0.18-0.15-0.29c0.01-0.03,0.09-0.07,0.13-0.06
					C67.05,13.48,67.12,13.52,67.21,13.55z"/>
				<path d="M65.15,15.86c0.02,0,0.03-0.01,0.03-0.01c0.28,0.06,0.33,0.03,0.27-0.27c-0.11-0.54-0.23-1.08-0.35-1.62
					c-0.05-0.21-0.1-0.42-0.16-0.63c-0.05-0.19-0.16-0.33-0.32-0.41c-0.11-0.06-0.15-0.15-0.16-0.28c0.04,0,0.07,0.01,0.11,0.01
					c0.19,0.02,0.38,0.05,0.56,0.06c0.27,0.02,0.29,0.03,0.36,0.31c0.04,0.16,0.08,0.31,0.13,0.47c0.01,0.04,0.03,0.08,0.07,0.16
					c0.03-0.08,0.05-0.13,0.07-0.17c0.05-0.1,0.1-0.21,0.16-0.31c0.09-0.12,0.21-0.15,0.33-0.06c0.28,0.2,0.45,0.47,0.44,0.83
					c0,0.24-0.12,0.31-0.3,0.17c-0.09-0.07-0.16-0.17-0.24-0.26c-0.07-0.08-0.13-0.2-0.24-0.17c-0.12,0.04-0.14,0.18-0.13,0.3
					c0.01,0.17,0.04,0.34,0.08,0.5c0.11,0.5,0.23,1,0.35,1.5c0.05,0.22,0.19,0.37,0.38,0.45c0.12,0.05,0.13,0.15,0.14,0.28
					c-0.04-0.01-0.08-0.02-0.11-0.04c-0.44-0.18-0.87-0.37-1.31-0.54C65.19,16.08,65.17,15.98,65.15,15.86z"/>
				<path d="M58.64,10.08c0.04,0.01,0.08,0.02,0.11,0.04c0.37,0.15,0.73,0.3,1.1,0.44c0.13,0.05,0.18,0.13,0.18,0.27
					c-0.01,0.01-0.02,0.02-0.02,0.02c-0.19-0.01-0.22,0.04-0.14,0.23c0.28,0.67,0.57,1.33,0.86,1.99c0.01,0.03,0.04,0.06,0.07,0.12
					c0.02-0.05,0.03-0.08,0.03-0.1c0.02-0.47,0.05-0.94,0.07-1.4c0.01-0.27-0.08-0.47-0.31-0.59c-0.1-0.05-0.11-0.15-0.11-0.27
					c0.07,0.03,0.12,0.05,0.18,0.07c0.22,0.09,0.43,0.18,0.65,0.26c0.14,0.05,0.19,0.14,0.19,0.28c-0.26,0.04-0.29,0.08-0.31,0.37
					c-0.05,0.8-0.09,1.59-0.13,2.39c0,0.06-0.03,0.17-0.06,0.17c-0.06,0-0.14-0.02-0.19-0.06c-0.07-0.07-0.12-0.15-0.16-0.24
					c-0.48-1.04-0.97-2.08-1.45-3.12c-0.11-0.24-0.24-0.45-0.46-0.59c-0.06-0.04-0.08-0.14-0.12-0.22
					C58.61,10.1,58.63,10.09,58.64,10.08z"/>
				<path d="M88.55,23.55c0-0.02,0.01-0.06,0.01-0.1c0.02-0.09,0.06-0.13,0.15-0.09c0.92,0.38,1.84,0.75,2.77,1.13
					c0.16,0.06,0.22,0.38,0.09,0.51c-0.02,0.02-0.09,0.01-0.13,0c-0.68-0.28-1.37-0.56-2.05-0.83c-0.21-0.09-0.42-0.17-0.63-0.26
					C88.61,23.84,88.54,23.73,88.55,23.55z"/>
			</g>
		</g>
	</g>
	<g>
		<polygon class="st21" points="122.35,43.04 122.22,63.53 138.42,31.25 141,20.75 139.33,18.17 136.58,17.75 		"/>
		<polygon class="st22" points="122.22,49.49 122.22,63.53 138.42,31.25 141,20.75 139.33,18.17 		"/>
		<polygon class="st23" points="122.35,43.04 122.22,63.53 138.42,31.25 141,20.75 139.33,18.17 136.58,17.75 		"/>
		<line class="st19" x1="139.33" y1="18.17" x2="122.22" y2="49.49"/>
	</g>
	<g>
		<polygon class="st21" points="122.15,73.17 166.83,50.75 172.58,53.83 173.58,54.58 166.33,63.17 122.06,87 		"/>
		<polygon class="st22" points="122.13,75.69 168.75,52.12 173.58,54.58 166.33,63.17 122.06,87 		"/>
		<line class="st20" x1="166.83" y1="50.75" x2="168.75" y2="52.12"/>
		<g id="_x30_fj0Jh_1_">
			<g>
				<path d="M163.61,58.97c0.05-0.08,0.07-0.15,0.11-0.18c0.28-0.21,0.57-0.42,0.85-0.62c0.02-0.02,0.05-0.02,0.1-0.05
					c-0.01,0.13-0.02,0.23-0.03,0.38c0.05-0.05,0.09-0.08,0.12-0.1c0.24-0.22,0.47-0.45,0.71-0.67c0.08-0.07,0.18-0.13,0.28-0.18
					c0.2-0.09,0.29-0.05,0.39,0.17c0.04-0.03,0.07-0.06,0.1-0.09c0.26-0.24,0.51-0.49,0.78-0.72c0.1-0.09,0.23-0.15,0.36-0.2
					c0.17-0.06,0.27,0.01,0.27,0.2c0,0.16-0.02,0.32-0.05,0.48c-0.08,0.36-0.16,0.72-0.25,1.08c0,0.01,0,0.03-0.01,0.04
					c-0.07,0.34-0.03,0.38,0.31,0.27c-0.04,0.08-0.05,0.15-0.09,0.17c-0.43,0.24-0.87,0.47-1.3,0.7c-0.01-0.01-0.02-0.02-0.03-0.03
					c0.04-0.05,0.06-0.13,0.11-0.16c0.16-0.11,0.26-0.26,0.31-0.44c0.12-0.46,0.22-0.93,0.33-1.39c0-0.02,0.01-0.04,0.01-0.06
					c0.02-0.18-0.08-0.27-0.22-0.17c-0.21,0.14-0.41,0.32-0.61,0.48c-0.01,0.01-0.02,0.04-0.03,0.06c-0.1,0.47-0.2,0.93-0.3,1.4
					c-0.01,0.04-0.01,0.08-0.02,0.12c-0.02,0.21,0.01,0.24,0.24,0.2c-0.04,0.08-0.06,0.15-0.11,0.18c-0.4,0.22-0.8,0.44-1.21,0.65
					c-0.01-0.01-0.02-0.01-0.03-0.02c0.03-0.05,0.06-0.13,0.1-0.16c0.17-0.11,0.28-0.27,0.33-0.47c0.11-0.44,0.21-0.88,0.31-1.33
					c0.02-0.09-0.02-0.19-0.04-0.28c-0.09,0.02-0.2,0-0.26,0.05c-0.18,0.13-0.34,0.29-0.51,0.45c-0.02,0.02-0.03,0.05-0.04,0.08
					c-0.11,0.5-0.22,1.01-0.32,1.51c-0.04,0.21-0.01,0.24,0.22,0.19c-0.04,0.07-0.05,0.15-0.09,0.17c-0.43,0.24-0.86,0.46-1.28,0.69
					c-0.01-0.01-0.02-0.02-0.03-0.03c0.04-0.06,0.07-0.14,0.13-0.17c0.22-0.12,0.35-0.31,0.4-0.56c0.1-0.47,0.21-0.94,0.31-1.41
					c0.05-0.24,0.01-0.27-0.21-0.21C163.68,58.97,163.67,58.96,163.61,58.97z"/>
				<path d="M161.58,60.44c-0.1-0.02-0.18-0.02-0.25-0.04c-0.16-0.04-0.25-0.14-0.22-0.31c0.04-0.21,0.09-0.44,0.19-0.63
					c0.34-0.62,0.86-1.01,1.49-1.23c0.36-0.12,0.52,0.05,0.43,0.43c-0.09,0.41-0.34,0.71-0.61,0.99c-0.05,0.05-0.1,0.09-0.16,0.16
					c0.1,0.02,0.18,0.03,0.25,0.05c0.17,0.03,0.26,0.13,0.28,0.31c0.03,0.21-0.01,0.42-0.1,0.61c-0.38,0.8-0.97,1.35-1.77,1.63
					c-0.44,0.16-0.63-0.04-0.52-0.52c0.06-0.28,0.2-0.52,0.37-0.74c0.17-0.21,0.35-0.4,0.53-0.6
					C161.51,60.52,161.53,60.49,161.58,60.44z M161.18,61.76c-0.01,0.32,0.1,0.4,0.34,0.29c0.54-0.24,0.79-0.79,0.82-1.3
					c0.01-0.12-0.04-0.22-0.15-0.25c-0.15-0.04-0.33-0.13-0.45,0C161.4,60.86,161.22,61.3,161.18,61.76z M162.11,59.79
					c0.18,0.01,0.18,0.01,0.28-0.15c0.16-0.25,0.24-0.54,0.27-0.84c0.03-0.24-0.07-0.31-0.28-0.22c-0.34,0.15-0.51,0.44-0.57,0.81
					C161.75,59.69,161.82,59.78,162.11,59.79z"/>
				<path d="M138.03,72.48c0.03-0.05,0.04-0.14,0.08-0.16c0.53-0.29,1.06-0.57,1.6-0.85c0.01,0.01,0.02,0.01,0.03,0.02
					c-0.03,0.06-0.06,0.12-0.09,0.18c-0.01,0.02-0.04,0.03-0.06,0.04c-0.18,0.13-0.19,0.19-0.07,0.38c0.05,0.07,0.09,0.13,0.14,0.2
					c0.08,0.11,0.1,0.11,0.17,0c0.13-0.22,0.26-0.44,0.39-0.67c0.03-0.06,0.04-0.13,0.05-0.19c-0.06,0-0.12-0.01-0.2-0.02
					c-0.02-0.06-0.01-0.13,0.06-0.17c0.36-0.19,0.71-0.38,1.08-0.57c0.02,0.09,0,0.16-0.07,0.2c-0.27,0.18-0.48,0.43-0.66,0.72
					c-0.16,0.26-0.32,0.51-0.49,0.77c-0.07,0.1-0.08,0.17,0.01,0.27c0.12,0.12,0.23,0.26,0.34,0.4c0.15,0.19,0.32,0.24,0.54,0.16
					c0.02-0.01,0.05-0.01,0.07-0.02c0,0,0.01,0,0.02,0c0.02,0.08,0,0.15-0.08,0.19c-0.51,0.27-1.01,0.55-1.52,0.82
					c-0.02,0.01-0.04,0.01-0.06,0.02c-0.01-0.01-0.02-0.02-0.03-0.03c0.03-0.06,0.06-0.12,0.1-0.17c0.04-0.04,0.1-0.07,0.13-0.11
					c0.03-0.05,0.05-0.13,0.03-0.17c-0.07-0.16-0.17-0.3-0.27-0.47c-0.04,0.05-0.07,0.08-0.09,0.11c-0.14,0.24-0.28,0.47-0.42,0.71
					c-0.03,0.06-0.04,0.13-0.06,0.19c0.06,0.01,0.12,0.02,0.2,0.04c0.02,0.06,0.01,0.12-0.07,0.16c-0.37,0.2-0.75,0.4-1.15,0.58
					c0.02-0.06,0.03-0.14,0.07-0.16c0.4-0.25,0.65-0.65,0.89-1.05c0.11-0.18,0.22-0.36,0.34-0.53c0.07-0.1,0.07-0.17-0.02-0.26
					c-0.12-0.11-0.23-0.23-0.34-0.36c-0.16-0.19-0.33-0.33-0.6-0.17C138.04,72.5,138.03,72.49,138.03,72.48z"/>
				<path d="M129.29,78.91c0,0.05,0.01,0.12-0.02,0.16c-0.42,0.72-0.98,1.26-1.76,1.5c-0.1,0.03-0.21,0.05-0.32,0.05
					c-0.26,0-0.43-0.16-0.5-0.42c-0.06-0.25-0.04-0.5,0.03-0.75c0.31-0.97,0.9-1.68,1.81-2.05c0.14-0.06,0.31-0.07,0.47-0.07
					c0.12,0,0.21,0.08,0.26,0.19c0.08,0.17,0.1,0.37,0.05,0.54c-0.03,0.09-0.12,0.18-0.2,0.22c-0.47,0.26-0.95,0.52-1.43,0.77
					c-0.12,0.06-0.16,0.14-0.15,0.27c0.01,0.47,0.22,0.62,0.63,0.46c0.39-0.16,0.71-0.43,0.98-0.77c0.03-0.04,0.06-0.08,0.09-0.12
					C129.26,78.91,129.28,78.91,129.29,78.91z M127.6,78.87c0.03,0,0.04,0,0.05,0c0.28-0.15,0.55-0.29,0.83-0.44
					c0.03-0.02,0.06-0.06,0.06-0.09c0-0.14,0-0.29-0.03-0.42c-0.02-0.11-0.12-0.17-0.23-0.15c-0.08,0.02-0.16,0.05-0.22,0.1
					C127.74,78.12,127.61,78.46,127.6,78.87z"/>
				<path d="M148.44,65.81c-0.13,0.84-0.25,1.66-0.37,2.51c0.23-0.12,0.43-0.23,0.65-0.35c-0.02,0.17-0.1,0.27-0.21,0.34
					c-0.12,0.07-0.23,0.13-0.35,0.19c-0.02,0.01-0.04,0.02-0.07,0.04c-0.11,0.07-0.16,0.57-0.06,0.65c0.04,0.03,0.11,0.04,0.16,0.03
					c0.09-0.02,0.18-0.06,0.27-0.1c0.02,0.09-0.01,0.15-0.08,0.19c-0.58,0.31-1.16,0.62-1.74,0.94c-0.01,0-0.02,0-0.06,0.01
					c0.03-0.07,0.05-0.12,0.08-0.17c0.02-0.03,0.05-0.04,0.08-0.06c0.36-0.21,0.53-0.44,0.56-1.06c-0.05,0.02-0.09,0.04-0.12,0.05
					c-0.32,0.17-0.65,0.34-0.97,0.52c-0.08,0.05-0.15,0.05-0.22-0.03c-0.07-0.08-0.02-0.13,0.01-0.19c0.59-1.01,1.18-2.01,1.77-3.02
					c0.09-0.15,0.2-0.27,0.36-0.34C148.23,65.93,148.32,65.87,148.44,65.81z M147.63,66.9c-0.02-0.01-0.03-0.01-0.05-0.02
					c-0.44,0.79-0.88,1.58-1.32,2.36c0.01,0.01,0.02,0.02,0.03,0.03c0.04-0.02,0.07-0.03,0.11-0.05c0.29-0.15,0.57-0.31,0.86-0.46
					c0.09-0.05,0.13-0.11,0.14-0.21c0.03-0.25,0.07-0.5,0.11-0.75C147.54,67.5,147.58,67.2,147.63,66.9z"/>
				<path d="M137.44,74.53c-0.01,0.05,0,0.12-0.02,0.16c-0.4,0.67-0.92,1.19-1.65,1.44c-0.54,0.18-0.86-0.08-0.81-0.68
					c0.03-0.47,0.22-0.89,0.47-1.27c0.36-0.53,0.79-0.97,1.39-1.19c0.11-0.04,0.24-0.06,0.36-0.07c0.06,0,0.13,0.02,0.19,0.05
					c0.25,0.17,0.23,0.77-0.03,0.91c-0.46,0.25-0.92,0.5-1.39,0.74c-0.11,0.06-0.16,0.14-0.15,0.26c0.01,0.1,0,0.19,0.02,0.28
					c0.04,0.19,0.17,0.27,0.35,0.25c0.24-0.03,0.45-0.15,0.63-0.31c0.19-0.15,0.35-0.34,0.53-0.51c0.03-0.03,0.05-0.06,0.08-0.09
					C137.41,74.52,137.43,74.52,137.44,74.53z M135.87,74.46c0.06-0.03,0.1-0.04,0.13-0.06c0.19-0.1,0.38-0.22,0.59-0.31
					c0.17-0.07,0.21-0.19,0.2-0.36c0-0.04,0-0.08-0.01-0.12c-0.03-0.26-0.2-0.34-0.4-0.2C136.04,73.66,135.9,74.02,135.87,74.46z"/>
				<path d="M143.49,70.87c-0.21,0.11-0.39,0.2-0.59,0.31c0.03-0.13,0.05-0.24,0.09-0.35c0.01-0.03,0.05-0.07,0.08-0.09
					c0.14-0.08,0.29-0.15,0.43-0.24c0.05-0.03,0.11-0.1,0.13-0.16c0.06-0.2,0.11-0.41,0.16-0.61c-0.01-0.01-0.02-0.01-0.03-0.02
					c-0.18,0.09-0.36,0.19-0.56,0.3c0.04-0.22,0.05-0.4,0.27-0.51c0.44-0.21,0.44-0.22,0.56-0.72c0.05-0.2,0.1-0.4,0.16-0.6
					c0.01-0.03,0.03-0.07,0.06-0.09c0.08-0.05,0.16-0.09,0.26-0.14c-0.11,0.39-0.21,0.76-0.32,1.17c0.1-0.05,0.17-0.1,0.25-0.13
					c0.27-0.09,0.43-0.28,0.47-0.59c0.03-0.19,0.11-0.38,0.14-0.57c0.04-0.2,0.15-0.3,0.34-0.34c-0.1,0.37-0.19,0.74-0.3,1.14
					c0.25-0.13,0.46-0.24,0.69-0.36c-0.04,0.22-0.05,0.43-0.29,0.51c-0.09,0.03-0.17,0.1-0.27,0.14c-0.19,0.07-0.28,0.21-0.32,0.42
					c-0.02,0.14-0.07,0.28-0.12,0.47c0.24-0.13,0.46-0.24,0.69-0.36c-0.03,0.22-0.04,0.41-0.27,0.5c-0.14,0.05-0.28,0.13-0.41,0.22
					c-0.06,0.04-0.12,0.11-0.14,0.18c-0.09,0.31-0.17,0.62-0.25,0.93c-0.04,0.16-0.18,0.16-0.3,0.22c0.1-0.36,0.19-0.71,0.3-1.11
					c-0.1,0.05-0.16,0.1-0.24,0.12c-0.28,0.1-0.44,0.29-0.48,0.61c-0.02,0.17-0.11,0.34-0.13,0.51c-0.03,0.22-0.17,0.31-0.36,0.37
					C143.3,71.62,143.39,71.26,143.49,70.87z M144.7,69.26c-0.01-0.01-0.02-0.01-0.03-0.02c-0.08,0.04-0.16,0.09-0.24,0.12
					c-0.24,0.09-0.39,0.25-0.42,0.53c-0.02,0.13-0.06,0.25-0.1,0.37c0.01,0.01,0.02,0.01,0.03,0.02c0.18-0.1,0.36-0.2,0.54-0.3
					c0.02-0.01,0.03-0.03,0.04-0.05C144.58,69.7,144.64,69.48,144.7,69.26z"/>
				<path d="M155.71,64.93c0.28-0.16,0.56-0.3,0.83-0.48c0.23-0.15,0.36-0.41,0.46-0.66c0.05-0.12,0.12-0.16,0.25-0.18
					c-0.02,0.06-0.03,0.12-0.05,0.17c-0.09,0.27-0.17,0.53-0.27,0.8c-0.02,0.05-0.06,0.1-0.1,0.12c-0.65,0.36-1.31,0.71-1.97,1.07
					c-0.02,0.01-0.04,0.02-0.06,0.02c-0.01-0.01-0.02-0.01-0.04-0.02c0.04-0.1,0.05-0.22,0.11-0.31c0.22-0.34,0.45-0.67,0.68-0.99
					c0.27-0.37,0.55-0.74,0.83-1.11c0.26-0.34,0.41-0.73,0.47-1.16c0.01-0.11,0.01-0.22,0-0.32c-0.03-0.17-0.17-0.25-0.32-0.17
					c-0.28,0.14-0.46,0.38-0.58,0.68c-0.02,0.04-0.01,0.09-0.01,0.14c0.02,0.27-0.17,0.57-0.42,0.66c-0.15,0.05-0.23-0.02-0.2-0.18
					c0.01-0.08,0.04-0.15,0.07-0.22c0.33-0.69,0.83-1.18,1.51-1.46c0.1-0.04,0.22-0.06,0.32-0.06c0.21,0,0.33,0.12,0.33,0.35
					c0,0.33-0.1,0.64-0.28,0.9c-0.2,0.31-0.43,0.6-0.64,0.89c-0.21,0.29-0.44,0.56-0.65,0.85c-0.11,0.15-0.19,0.32-0.28,0.49
					c-0.03,0.05-0.03,0.1-0.05,0.16C155.69,64.92,155.7,64.93,155.71,64.93z"/>
				<path d="M122.98,80.5c0.03-0.06,0.04-0.14,0.09-0.17c0.53-0.29,1.06-0.57,1.6-0.85c0.01-0.01,0.02,0,0.04-0.01
					c0.03,0.09,0.01,0.16-0.08,0.21c-0.03,0.02-0.06,0.04-0.08,0.06c-0.19,0.15-0.21,0.21-0.11,0.44c0.12,0.28,0.24,0.56,0.37,0.84
					c0.02,0.05,0.05,0.09,0.08,0.16c0.03-0.06,0.06-0.09,0.07-0.12c0.2-0.48,0.39-0.97,0.58-1.45c0.03-0.07,0.05-0.15,0.06-0.22
					c0.01-0.09-0.03-0.13-0.12-0.11c-0.07,0.01-0.14,0.04-0.24,0.04c0.02-0.06,0.03-0.14,0.07-0.16c0.37-0.21,0.75-0.4,1.14-0.61
					c0.03,0.09,0.01,0.16-0.06,0.21c-0.25,0.16-0.4,0.4-0.51,0.67c-0.34,0.83-0.68,1.66-1.01,2.49c-0.07,0.17-0.17,0.28-0.33,0.35
					c-0.09,0.04-0.16,0.02-0.21-0.08c-0.26-0.49-0.53-0.98-0.8-1.47c-0.14-0.27-0.18-0.28-0.47-0.19c-0.02,0.01-0.04,0.01-0.06,0.01
					C123.01,80.52,122.99,80.51,122.98,80.5z"/>
				<path d="M160.23,59.56c-0.17,0.84-0.33,1.65-0.5,2.49c0.21-0.11,0.4-0.21,0.61-0.32c-0.03,0.17-0.1,0.27-0.22,0.33
					c-0.12,0.07-0.24,0.12-0.35,0.19c-0.05,0.03-0.09,0.1-0.11,0.15c-0.03,0.11-0.05,0.23-0.06,0.35c-0.01,0.18,0.06,0.24,0.22,0.19
					c0.07-0.02,0.13-0.05,0.22-0.05c-0.03,0.05-0.04,0.13-0.08,0.15c-0.55,0.3-1.1,0.59-1.65,0.9c-0.02-0.11,0.03-0.17,0.11-0.21
					c0.4-0.2,0.54-0.57,0.6-1c0-0.01,0-0.02-0.01-0.05c-0.04,0.02-0.08,0.04-0.12,0.06c-0.3,0.16-0.6,0.33-0.9,0.48
					c-0.04,0.02-0.11,0.01-0.15-0.02c-0.06-0.04-0.07-0.1-0.02-0.18c0.6-0.99,1.21-1.98,1.8-2.98
					C159.76,59.78,159.99,59.7,160.23,59.56z M158.06,62.91c0.01,0.01,0.02,0.02,0.03,0.03c0.32-0.17,0.64-0.34,0.95-0.52
					c0.03-0.02,0.05-0.07,0.06-0.12c0.1-0.48,0.19-0.97,0.29-1.45c0.02-0.08,0.03-0.16,0.04-0.24c-0.01-0.01-0.03-0.01-0.04-0.02
					C158.95,61.36,158.5,62.13,158.06,62.91z"/>
				<path d="M133.11,75.27c-0.09,0.05-0.16,0.08-0.23,0.12c-0.07,0.03-0.13,0.07-0.2,0.11c-0.03-0.11-0.01-0.2,0.08-0.26
					c0.06-0.05,0.11-0.11,0.18-0.13c0.16-0.06,0.23-0.18,0.22-0.35c-0.01-0.37,0.13-0.64,0.43-0.83c0.15-0.09,0.27-0.22,0.41-0.33
					c0.01,0.01,0.02,0.01,0.03,0.02c-0.04,0.31-0.07,0.63-0.11,0.97c0.28-0.15,0.53-0.28,0.78-0.41c0.03,0.2,0,0.26-0.15,0.34
					c-0.19,0.1-0.38,0.2-0.56,0.3c-0.05,0.03-0.09,0.1-0.1,0.16c-0.05,0.48-0.08,0.95-0.12,1.43c-0.01,0.08-0.01,0.16,0,0.23
					c0.02,0.13,0.1,0.18,0.21,0.13c0.12-0.07,0.23-0.16,0.35-0.23c0.03-0.02,0.08-0.02,0.11-0.03c-0.01,0.04,0,0.09-0.02,0.11
					c-0.28,0.36-0.6,0.66-1.02,0.81c-0.35,0.13-0.48,0.03-0.46-0.37c0.04-0.54,0.09-1.08,0.14-1.62
					C133.1,75.38,133.1,75.34,133.11,75.27z"/>
				<path d="M131.51,78.27c0.03,0.09,0.01,0.15-0.06,0.2c-0.56,0.3-1.11,0.6-1.67,0.9c-0.01,0-0.02,0-0.04,0
					c-0.02-0.08-0.01-0.14,0.06-0.18c0.05-0.03,0.1-0.06,0.15-0.09c0.2-0.12,0.29-0.3,0.3-0.53c0.03-0.46,0.06-0.91,0.09-1.37
					c0-0.01,0-0.02,0-0.03c0-0.26-0.06-0.31-0.3-0.22c-0.03,0.01-0.06,0.02-0.1,0.03c-0.03-0.09-0.02-0.14,0.05-0.19
					c0.33-0.23,0.65-0.46,0.97-0.69c0.04-0.03,0.1-0.04,0.15-0.06c0.01,0.05,0.03,0.11,0.03,0.16c0.01,0.11,0.01,0.21,0.04,0.34
					c0.03-0.03,0.05-0.07,0.08-0.1c0.17-0.24,0.32-0.48,0.51-0.7c0.09-0.1,0.21-0.18,0.33-0.24c0.07-0.03,0.19-0.02,0.25,0.03
					c0.04,0.03,0.04,0.16,0.02,0.24c-0.06,0.23-0.19,0.41-0.4,0.52c-0.09,0.05-0.19,0.06-0.3,0.03c-0.06-0.02-0.17,0.01-0.22,0.06
					c-0.18,0.16-0.3,0.37-0.32,0.63c-0.03,0.37-0.06,0.75-0.07,1.12c-0.01,0.29,0.06,0.33,0.32,0.22
					C131.43,78.3,131.46,78.28,131.51,78.27z"/>
				<path d="M153.2,65.07c0.02,0.14-0.08,0.37-0.19,0.43c-0.8,0.43-1.61,0.86-2.42,1.3c-0.01,0.01-0.02,0-0.03,0
					c-0.05-0.14,0.06-0.35,0.22-0.44c0.52-0.28,1.04-0.56,1.56-0.84c0.25-0.13,0.49-0.26,0.74-0.39
					C153.11,65.11,153.16,65.09,153.2,65.07z"/>
			</g>
		</g>
		<polygon class="st23" points="122.15,73.17 166.83,50.75 172.58,53.83 173.58,54.58 166.33,63.17 122.06,87 		"/>
		<polygon class="st19" points="122.13,75.69 168.75,52.12 173.58,54.58 166.33,63.17 122.06,87 		"/>
	</g>
	<g>
		<path class="st21" d="M113.67,45.17L34,77.58L23.08,92l1.25,2.75l18.42,1l73.42-33.42L115.83,47c0,0-0.72-0.27-1.43-0.77
			S113.67,45.17,113.67,45.17z"/>
		<polygon class="st22" points="115.83,47 35.5,80.25 24.33,94.75 42.75,95.75 116.17,62.33 		"/>
		<path class="st23" d="M113.67,45.17L34,77.58L23.08,92l1.25,2.75l18.42,1l73.42-33.42L115.83,47c0,0-0.72-0.27-1.43-0.77
			S113.67,45.17,113.67,45.17z"/>
		<polygon class="st19" points="115.83,47 35.5,80.25 24.33,94.75 42.75,95.75 116.17,62.33 		"/>
		<line class="st19" x1="34" y1="77.58" x2="35.5" y2="80.25"/>
		<g id="Kk40NK_1_">
			<g>
				<path d="M110.18,56.07c0.08-0.07,0.14-0.14,0.21-0.2c0.33-0.3,0.66-0.61,0.99-0.9c0.19-0.16,0.4-0.25,0.63-0.27
					c0.27-0.02,0.44,0.12,0.5,0.44c0.04,0.2,0.05,0.42,0.04,0.63c-0.02,0.51-0.05,1.02-0.07,1.53c-0.01,0.13,0,0.27,0.02,0.39
					c0.03,0.18,0.09,0.24,0.24,0.22c0.1-0.01,0.19-0.04,0.29-0.06c0.06,0.18,0,0.25-0.12,0.3c-0.28,0.12-0.55,0.23-0.82,0.36
					c-0.29,0.13-0.58,0.26-0.87,0.39c-0.08,0.03-0.15,0.06-0.24,0.1c-0.06-0.15-0.02-0.25,0.09-0.31c0.24-0.13,0.36-0.37,0.38-0.68
					c0.04-0.65,0.09-1.3,0.1-1.95c0.01-0.37-0.15-0.49-0.43-0.39c-0.31,0.11-0.56,0.35-0.81,0.6c-0.04,0.04-0.06,0.12-0.06,0.19
					c-0.03,0.61-0.05,1.22-0.07,1.83c0,0.1,0,0.2,0.01,0.3c0.03,0.31,0.07,0.36,0.32,0.34c0.02,0,0.05,0,0.08,0
					c0.05,0.13,0.04,0.23-0.09,0.29c-0.12,0.05-0.24,0.1-0.35,0.15c-0.42,0.18-0.83,0.37-1.24,0.55c-0.08,0.03-0.15,0.06-0.24,0.1
					c-0.05-0.15-0.03-0.25,0.09-0.32c0.25-0.13,0.36-0.4,0.38-0.71c0.03-0.63,0.07-1.26,0.08-1.89c0.01-0.37-0.15-0.52-0.44-0.42
					c-0.31,0.11-0.56,0.36-0.8,0.63c-0.04,0.05-0.05,0.15-0.06,0.22c-0.03,0.66-0.05,1.32-0.07,1.98c0,0.05,0,0.1,0,0.15
					c0.02,0.29,0.06,0.32,0.29,0.3c0.03,0,0.06,0,0.1,0c0.05,0.13,0.02,0.22-0.08,0.28c-0.02,0.01-0.05,0.02-0.07,0.03
					c-0.58,0.26-1.16,0.51-1.74,0.77c-0.04,0.02-0.09,0.03-0.14,0.04c-0.04-0.14-0.03-0.23,0.08-0.29c0.05-0.03,0.11-0.06,0.16-0.09
					c0.22-0.12,0.35-0.32,0.36-0.62c0.03-0.73,0.06-1.46,0.07-2.2c0.01-0.29-0.08-0.36-0.31-0.32c-0.06,0.01-0.11,0.02-0.18,0.03
					c-0.06-0.13-0.06-0.23,0.06-0.3c0.41-0.27,0.83-0.54,1.24-0.8c0.04-0.03,0.09-0.03,0.17-0.04c0.02,0.18,0.04,0.33,0.06,0.52
					c0.06-0.05,0.11-0.08,0.16-0.13c0.29-0.27,0.56-0.55,0.86-0.81c0.13-0.12,0.29-0.21,0.45-0.27
					C109.71,55.67,109.99,55.71,110.18,56.07z"/>
				<path d="M44.55,86.06c0.06,0.64,0.42,1.06,0.92,1.07c0.22,0,0.45-0.04,0.66-0.12c0.55-0.2,1.05-0.53,1.43-1.09
					c0.02-0.02,0.03-0.04,0.05-0.06c0.01-0.01,0.03-0.02,0.05-0.02c0.19,0.14,0.2,0.16,0.1,0.36c-0.33,0.71-0.81,1.23-1.42,1.57
					c-0.44,0.25-0.9,0.44-1.38,0.48c-0.27,0.02-0.55,0.02-0.81-0.06c-0.84-0.25-1.26-1.27-1-2.32c0.11-0.44,0.31-0.82,0.57-1.15
					c0.68-0.86,1.51-1.28,2.45-1.34c0.57-0.03,1,0.31,1.18,0.9c0.12,0.38,0.08,0.5-0.24,0.64c-0.77,0.34-1.54,0.67-2.31,1.01
					C44.73,85.98,44.64,86.02,44.55,86.06z M44.49,85.69c0.53-0.24,1.04-0.43,1.55-0.7c-0.09-0.43-0.22-0.79-0.57-0.92
					c-0.34-0.12-0.61,0.07-0.84,0.38C44.35,84.83,44.4,85.24,44.49,85.69z"/>
				<path d="M63.85,78.31c-0.25,0.37-0.58,1.16-0.58,1.42c0.09,0.01,0.19,0.01,0.28,0.03c0.05,0.01,0.11,0.05,0.13,0.1
					c0.03,0.08,0,0.16-0.08,0.19c-0.04,0.02-0.08,0.04-0.12,0.05c-0.52,0.23-1.03,0.46-1.55,0.68c-0.08,0.03-0.18,0.14-0.23-0.03
					c-0.05-0.14,0.04-0.2,0.13-0.25c0.45-0.26,0.77-0.67,1.01-1.2c0.14-0.31,0.3-0.59,0.45-0.89c0.04-0.09,0.08-0.18,0.13-0.28
					c-0.07-0.06-0.13-0.12-0.19-0.16c-0.31-0.23-0.62-0.45-0.92-0.68c-0.33-0.25-0.66-0.44-1.05-0.24
					c-0.11-0.23-0.11-0.27,0.04-0.34c0.85-0.37,1.7-0.73,2.54-1.1c0.01-0.01,0.03,0,0.05,0c0.09,0.21,0.09,0.24-0.06,0.32
					c-0.34,0.18-0.33,0.34-0.05,0.57c0.18,0.15,0.33,0.35,0.56,0.46c0.05-0.1,0.1-0.19,0.15-0.29c0.11-0.24,0.23-0.48,0.33-0.73
					c0.04-0.09,0.04-0.21,0.05-0.31c-0.08-0.01-0.17-0.03-0.25-0.03c-0.03,0-0.06,0.01-0.09,0.01c-0.09-0.22-0.09-0.25,0.04-0.31
					c0.58-0.25,1.16-0.5,1.74-0.75c0.1,0.21,0.1,0.25-0.04,0.33c-0.42,0.25-0.72,0.66-0.96,1.15c-0.14,0.29-0.3,0.57-0.45,0.86
					c-0.04,0.09-0.08,0.17-0.12,0.25c0.01,0.04,0.02,0.07,0.03,0.08c0.41,0.32,0.81,0.66,1.23,0.97c0.21,0.15,0.45,0.18,0.69,0.13
					c0.07-0.01,0.13-0.04,0.2-0.03c0.04,0,0.1,0.05,0.11,0.08c0.01,0.06-0.01,0.14-0.04,0.18c-0.03,0.04-0.09,0.05-0.14,0.07
					c-0.77,0.34-1.53,0.68-2.3,1.02c-0.08,0.03-0.18,0.14-0.23-0.03c-0.04-0.14,0.04-0.2,0.13-0.25c0.02-0.01,0.03-0.02,0.04-0.03
					c0.2-0.15,0.21-0.23,0.05-0.41c-0.18-0.2-0.37-0.38-0.56-0.57C63.91,78.34,63.89,78.33,63.85,78.31z"/>
				<path d="M82.99,65.64c0.1,0.27,0.1,0.3-0.1,0.4c-0.47,0.24-0.9,0.53-1.28,0.95c-0.5,0.55-0.81,1.23-0.91,2.04
					c-0.01,0.06-0.01,0.12-0.02,0.19c0.11,0.04,0.16-0.06,0.22-0.12c0.41-0.37,0.85-0.66,1.36-0.71c0.2-0.02,0.4-0.02,0.59,0.02
					c0.46,0.1,0.71,0.53,0.68,1.11c-0.04,0.63-0.25,1.17-0.61,1.62c-0.59,0.75-1.32,1.12-2.14,1.18c-0.53,0.04-0.91-0.28-1.1-0.89
					c-0.25-0.81-0.21-1.63,0.02-2.45c0.26-0.91,0.77-1.58,1.38-2.16c0.55-0.53,1.17-0.87,1.82-1.17
					C82.93,65.64,82.95,65.65,82.99,65.64z M82.37,70.55c-0.02-0.27-0.02-0.55-0.08-0.8c-0.12-0.52-0.53-0.76-0.95-0.58
					c-0.13,0.06-0.25,0.16-0.38,0.24c-0.25,0.17-0.35,0.4-0.29,0.76c0.07,0.39,0.09,0.8,0.26,1.16c0.13,0.29,0.33,0.47,0.61,0.45
					c0.3-0.02,0.53-0.19,0.65-0.54C82.27,71.02,82.31,70.79,82.37,70.55z"/>
				<path d="M58.07,80.14c0.04,0.76,0.45,1.18,1.05,1.07c0.63-0.11,1.18-0.46,1.64-1.03c0.05-0.07,0.1-0.13,0.15-0.2
					c0.19,0.11,0.2,0.15,0.1,0.36c-0.34,0.7-0.81,1.21-1.4,1.54c-0.37,0.21-0.76,0.36-1.17,0.42c-0.16,0.02-0.31,0.04-0.47,0.02
					c-0.82-0.06-1.34-0.8-1.28-1.82c0.02-0.37,0.11-0.73,0.27-1.05c0.64-1.25,1.56-1.87,2.72-1.93c0.57-0.03,0.95,0.35,1.07,0.99
					c0.06,0.3,0.01,0.41-0.22,0.52c-0.06,0.03-0.12,0.06-0.19,0.08c-0.67,0.3-1.35,0.59-2.02,0.89
					C58.25,80.05,58.17,80.09,58.07,80.14z M59.52,79.12c-0.07-0.23-0.11-0.43-0.19-0.6c-0.17-0.37-0.52-0.47-0.83-0.26
					c-0.44,0.3-0.62,0.89-0.43,1.49C58.54,79.55,59.01,79.35,59.52,79.12z"/>
				<path d="M40.38,88.84c0.03-0.1,0.06-0.17,0.08-0.24c0.13-0.66,0.27-1.31,0.39-1.97c0.09-0.49-0.01-0.62-0.42-0.52
					c-0.06,0.01-0.12,0.05-0.17,0.04c-0.05-0.01-0.1-0.07-0.12-0.12c-0.01-0.05,0.02-0.13,0.06-0.17c0.02-0.03,0.07-0.04,0.11-0.06
					c0.55-0.24,1.1-0.48,1.65-0.71c0.05-0.02,0.11-0.03,0.16-0.05c0.1,0.24,0.11,0.25-0.04,0.34c-0.37,0.21-0.55,0.57-0.64,1.04
					c-0.23,1.16-0.49,2.32-0.72,3.49c-0.06,0.3-0.19,0.46-0.42,0.56c-0.2,0.08-0.36,0.05-0.52-0.11c-0.75-0.77-1.51-1.51-2.25-2.28
					c-0.27-0.29-0.56-0.43-0.92-0.3c-0.03,0.01-0.07,0.03-0.1,0.02c-0.05-0.04-0.11-0.08-0.13-0.14c-0.01-0.04,0.04-0.12,0.08-0.16
					c0.04-0.04,0.09-0.04,0.14-0.07c0.8-0.35,1.6-0.69,2.4-1.04c0.05-0.02,0.1-0.06,0.14-0.05c0.05,0,0.12,0.04,0.13,0.08
					c0.01,0.06-0.01,0.17-0.04,0.21c-0.08,0.08-0.18,0.11-0.26,0.18c-0.17,0.14-0.18,0.24-0.04,0.41c0.28,0.34,0.56,0.66,0.84,0.99
					c0.15,0.18,0.3,0.36,0.46,0.53C40.27,88.76,40.32,88.79,40.38,88.84z"/>
				<path d="M70.66,73.38c-0.34,0.14-0.64,0.27-0.97,0.41c0-0.23,0-0.42,0-0.62c0.33-0.15,0.64-0.29,0.98-0.44
					c0.03-0.57,0.06-1.14,0.09-1.73c0.17-0.07,0.33-0.14,0.53-0.23c-0.03,0.59-0.06,1.13-0.09,1.71c0.22-0.05,0.4-0.15,0.59-0.23
					c0.43-0.19,0.36-0.06,0.39-0.63c0.02-0.41,0.04-0.81,0.06-1.26c0.15-0.07,0.3-0.13,0.49-0.22c-0.02,0.58-0.05,1.12-0.07,1.67
					c0.21,0,0.38-0.13,0.55-0.19c0.17-0.06,0.34-0.14,0.56-0.24c0,0.23-0.01,0.42-0.01,0.63c-0.31,0.14-0.61,0.27-0.91,0.4
					c-0.22,0.1-0.23,0.1-0.24,0.38c-0.01,0.25-0.02,0.5-0.03,0.8c0.39-0.17,0.74-0.32,1.12-0.48c0,0.22,0,0.41,0,0.62
					c-0.38,0.17-0.75,0.33-1.14,0.51c-0.03,0.56-0.06,1.12-0.09,1.7c-0.15,0.07-0.3,0.13-0.47,0.21c-0.02-0.57,0.07-1.1,0.06-1.69
					c-0.3,0.13-0.57,0.24-0.84,0.38c-0.05,0.02-0.09,0.15-0.09,0.22c-0.03,0.41-0.04,0.81-0.07,1.22c-0.02,0.3-0.02,0.3-0.26,0.4
					c-0.08,0.03-0.15,0.06-0.27,0.1c0.02-0.56,0.04-1.1,0.06-1.68c-0.32,0.13-0.62,0.26-0.95,0.4c0-0.22,0-0.41,0-0.61
					c0.33-0.15,0.65-0.29,0.98-0.44C70.63,74.11,70.64,73.77,70.66,73.38z M72.13,72.73c-0.31,0.14-0.58,0.25-0.85,0.38
					c-0.04,0.02-0.07,0.09-0.08,0.14c-0.03,0.31-0.04,0.62-0.07,0.99c0.34-0.15,0.63-0.28,0.91-0.4
					C72.07,73.47,72.1,73.13,72.13,72.73z"/>
				<path d="M56.38,82.78c-0.05,0.09-0.09,0.17-0.14,0.23c-0.41,0.5-0.89,0.84-1.45,1c-0.05,0.01-0.1,0.02-0.15,0.03
					c-0.58,0.1-0.82-0.1-0.96-0.79c-0.14-0.71-0.27-1.43-0.41-2.15c-0.02-0.11-0.04-0.21-0.07-0.34c-0.25,0.1-0.47,0.2-0.7,0.29
					c-0.13-0.26-0.13-0.32,0.07-0.47c0.08-0.07,0.18-0.11,0.27-0.16c0.08-0.04,0.17-0.08,0.27-0.13c-0.03-0.18-0.07-0.35-0.09-0.51
					c-0.02-0.15-0.05-0.3-0.04-0.45c0.01-0.1,0.05-0.23,0.11-0.29c0.32-0.27,0.65-0.51,0.98-0.76c0.03-0.02,0.06-0.02,0.12-0.04
					c0.08,0.49,0.15,0.97,0.24,1.48c0.44-0.19,0.86-0.37,1.27-0.54c0.15,0.32,0.13,0.42-0.12,0.54c-0.26,0.12-0.53,0.23-0.8,0.35
					c-0.08,0.03-0.15,0.07-0.23,0.12c0.01,0.09,0.02,0.16,0.03,0.22c0.14,0.69,0.27,1.37,0.41,2.06c0.12,0.58,0.32,0.7,0.77,0.46
					c0.11-0.06,0.21-0.13,0.31-0.21C56.17,82.61,56.27,82.62,56.38,82.78z"/>
				<path d="M48.75,86.62c-0.09-0.26-0.09-0.26,0.07-0.35c0.1-0.06,0.21-0.12,0.31-0.19c0.15-0.11,0.23-0.27,0.21-0.49
					c-0.01-0.13-0.03-0.26-0.05-0.39c-0.13-0.59-0.27-1.19-0.4-1.78c-0.02-0.07-0.03-0.14-0.05-0.2c-0.09-0.27-0.19-0.35-0.44-0.31
					c-0.12,0.02-0.24,0.05-0.38,0.08c-0.03-0.08-0.05-0.15-0.08-0.24c0.03-0.02,0.05-0.04,0.07-0.05c0.51-0.33,1.02-0.65,1.54-0.98
					c0.05-0.03,0.1-0.07,0.16-0.08c0.11-0.04,0.19,0,0.24,0.13c0.07,0.2,0.14,0.4,0.23,0.65c0.06-0.11,0.1-0.18,0.14-0.25
					c0.18-0.3,0.34-0.61,0.54-0.89c0.2-0.27,0.46-0.42,0.76-0.41c0.18,0,0.38,0.02,0.46,0.26c0.09,0.25,0.02,0.49-0.12,0.68
					c-0.23,0.33-0.53,0.43-0.86,0.34c-0.46-0.13-0.87,0.34-0.77,0.91c0.1,0.59,0.24,1.17,0.38,1.75c0.08,0.34,0.22,0.42,0.51,0.35
					c0.09-0.02,0.18-0.06,0.26-0.09c0.08-0.03,0.15-0.02,0.17,0.1c0.02,0.1-0.02,0.16-0.09,0.19c-0.03,0.02-0.06,0.03-0.09,0.04
					c-0.85,0.38-1.71,0.76-2.56,1.14C48.86,86.59,48.81,86.6,48.75,86.62z"/>
				<path d="M101.5,62.98c0.04,0.14,0.02,0.22-0.05,0.27c-0.03,0.02-0.06,0.03-0.09,0.05c-0.8,0.35-1.6,0.71-2.4,1.06
					c-0.01,0.01-0.03,0-0.06,0.01c-0.08-0.12-0.04-0.22,0.06-0.29c0.08-0.06,0.17-0.09,0.25-0.14c0.3-0.18,0.46-0.47,0.48-0.87
					c0.01-0.16,0-0.32,0.01-0.51c-0.12,0.05-0.2,0.08-0.29,0.11c-0.41,0.18-0.81,0.36-1.22,0.54c-0.26,0.11-0.31,0.09-0.49-0.22
					c0.01-0.04,0.03-0.09,0.05-0.13c0.66-1.35,1.33-2.7,1.98-4.06c0.17-0.35,0.38-0.58,0.71-0.67c0.09-0.02,0.19-0.07,0.31-0.12
					c-0.01,1.23-0.01,2.42-0.01,3.66c0.32-0.13,0.61-0.24,0.91-0.36c0,0.28-0.06,0.39-0.23,0.48c-0.18,0.09-0.36,0.17-0.54,0.24
					c-0.1,0.04-0.15,0.11-0.14,0.25c0.01,0.13,0,0.26,0.01,0.4c0.03,0.34,0.16,0.45,0.43,0.4C101.27,63.05,101.38,63.01,101.5,62.98
					z M99.66,59.54c-0.55,1.04-1.02,2.12-1.5,3.2c0.01,0.02,0.03,0.04,0.04,0.06c0.49-0.22,0.99-0.43,1.49-0.66
					C99.69,61.26,99.7,60.4,99.66,59.54z"/>
				<path d="M74.9,70.1c0.76-0.66,1.53-1.32,2.29-1.98c0.06-0.06,0.15-0.07,0.24-0.11c0.03,0.08,0.06,0.13,0.06,0.18
					c-0.02,1.19,0.17,2.34,0.25,3.51c0.02,0.3,0.05,0.6,0.09,0.9c0.05,0.44,0.21,0.59,0.57,0.53c0.12-0.02,0.24-0.07,0.36-0.11
					c0.07-0.02,0.15-0.04,0.16,0.07c0,0.06-0.04,0.14-0.08,0.2c-0.03,0.04-0.09,0.05-0.14,0.07c-0.92,0.41-1.83,0.81-2.75,1.22
					c-0.03,0.01-0.06,0.03-0.09,0.04c-0.06,0.03-0.15,0.06-0.16-0.06c-0.01-0.06,0.03-0.17,0.07-0.2c0.11-0.09,0.24-0.14,0.36-0.21
					c0.4-0.26,0.53-0.55,0.48-1.1c-0.09-0.96-0.18-1.91-0.28-2.86c-0.05-0.48-0.11-0.53-0.47-0.31c-0.2,0.12-0.39,0.27-0.59,0.42
					C75.07,70.45,75.02,70.43,74.9,70.1z"/>
				<path d="M95.01,61.61c-0.2,0.01-0.36,0.15-0.53,0.26c-0.11,0.07-0.21,0.16-0.32,0.24c-0.2,0.16-0.23,0.15-0.33-0.17
					c0.05-0.05,0.11-0.11,0.17-0.17c0.59-0.52,1.19-1.05,1.78-1.56c0.13-0.11,0.25-0.25,0.44-0.24c0.01,0.05,0.03,0.11,0.03,0.16
					c-0.09,0.99-0.02,1.97-0.02,2.96c0,0.43,0.01,0.85,0.02,1.28c0,0.09,0,0.18,0.02,0.27c0.04,0.28,0.16,0.4,0.4,0.37
					c0.11-0.01,0.21-0.05,0.32-0.07c0.06-0.01,0.11-0.03,0.17-0.04c0.07,0.11,0.05,0.2-0.03,0.27c-0.05,0.04-0.11,0.06-0.16,0.08
					c-0.82,0.37-1.65,0.73-2.47,1.09c-0.07,0.03-0.14,0.05-0.21,0.08c-0.08-0.16-0.03-0.24,0.08-0.3c0.09-0.05,0.18-0.1,0.27-0.15
					c0.38-0.22,0.55-0.58,0.54-1.09c-0.01-0.5-0.02-1-0.03-1.49c-0.01-0.45-0.01-0.89-0.03-1.34C95.1,61.9,95.11,61.74,95.01,61.61z
					"/>
				<path d="M102.37,59.07c0.05-0.63,0.1-1.24,0.15-1.87c0.4,0.02,0.73-0.19,1.07-0.33c0.65-0.27,1.29-0.55,1.93-0.83
					c0.08-0.04,0.17-0.07,0.3-0.12c-0.04,0.14-0.06,0.22-0.09,0.3c-0.72,1.89-1.37,3.82-1.99,5.77c-0.06,0.19-0.14,0.31-0.29,0.38
					c-0.21,0.09-0.41,0.22-0.63,0.3c0.07-0.34,0.21-0.62,0.33-0.92c0.12-0.3,0.24-0.59,0.36-0.88c0.12-0.3,0.25-0.61,0.37-0.91
					c0.12-0.29,0.24-0.59,0.36-0.89c0.12-0.3,0.24-0.61,0.37-0.92c0.12-0.29,0.23-0.59,0.36-0.93c-0.1,0.03-0.16,0.04-0.22,0.06
					c-0.42,0.18-0.84,0.38-1.27,0.54c-0.42,0.16-0.7,0.47-0.83,0.98C102.62,59.01,102.52,59.08,102.37,59.07z"/>
				<path d="M90.52,65.37c0.05,0.38-0.04,0.59-0.28,0.7c-1.18,0.52-2.37,1.04-3.55,1.55c-0.07,0.03-0.2,0.04-0.22,0
					c-0.03-0.08-0.03-0.21-0.01-0.31c0.04-0.19,0.16-0.27,0.31-0.33c0.9-0.39,1.79-0.78,2.68-1.17c0.27-0.12,0.55-0.24,0.82-0.36
					C90.35,65.42,90.43,65.4,90.52,65.37z"/>
			</g>
		</g>
	</g>
	<g>
		<path class="st21" d="M120,91.08v9.75l53.83,35.67l12.33,2.42l1.67-2.5l-8.5-11.42l-57.5-35.58c0,0-0.18,0.6-0.61,1.01
			S120,91.08,120,91.08z"/>
		<polygon class="st22" points="120,91.08 177.75,127.38 186.17,138.92 173.83,136.5 120,100.83 		"/>
		<g id="LMLDjS_1_">
			<g>
				<path d="M168.86,126.89c0.28,0.14,0.55,0.28,0.83,0.42c0.13,0.07,0.27,0.13,0.4,0.2c0.2,0.1,0.23,0.15,0.19,0.38
					c-0.02,0.11,0.02,0.14,0.1,0.16c0.33,0.1,0.67,0.2,0.99,0.33c0.36,0.14,0.66,0.39,0.89,0.72c0.03,0.05,0.07,0.1,0.08,0.16
					c0.03,0.14,0.11,0.18,0.23,0.22c0.39,0.13,0.79,0.26,1.17,0.43c0.32,0.14,0.59,0.36,0.8,0.66c0.17,0.25,0.19,0.53,0.09,0.81
					c-0.09,0.26-0.19,0.51-0.28,0.77c-0.08,0.22-0.05,0.37,0.12,0.53c0.09,0.08,0.19,0.15,0.28,0.22c0.07,0.06,0.07,0.06,0.01,0.17
					c-0.04-0.02-0.08-0.04-0.12-0.07c-0.61-0.4-1.22-0.8-1.83-1.2c-0.02-0.02-0.06-0.03-0.07-0.05c-0.02-0.03-0.02-0.07-0.03-0.1
					c0.03,0,0.07-0.02,0.1-0.01c0.05,0.01,0.09,0.05,0.13,0.07c0.19,0.08,0.3,0.05,0.38-0.15c0.12-0.3,0.23-0.6,0.33-0.91
					c0.05-0.14,0.01-0.28-0.09-0.39c-0.09-0.1-0.18-0.2-0.29-0.26c-0.27-0.14-0.54-0.27-0.83-0.4c-0.14,0.42-0.26,0.79-0.38,1.17
					c-0.05,0.17,0,0.33,0.14,0.44c0.05,0.04,0.11,0.08,0.15,0.13c0.02,0.03,0.02,0.07,0.04,0.11c-0.04,0-0.08,0.02-0.1,0
					c-0.58-0.38-1.16-0.76-1.75-1.14c-0.07-0.05-0.08-0.09-0.01-0.16c0.07,0.03,0.14,0.07,0.21,0.1c0.16,0.06,0.28,0.02,0.34-0.15
					c0.11-0.31,0.21-0.62,0.31-0.93c0.04-0.14,0.01-0.28-0.09-0.38c-0.13-0.13-0.27-0.26-0.43-0.35c-0.18-0.1-0.38-0.15-0.57-0.22
					c-0.07-0.03-0.11-0.01-0.13,0.07c-0.11,0.34-0.23,0.69-0.33,1.03c-0.07,0.22-0.01,0.34,0.21,0.5c0.11,0.08,0.11,0.08,0.06,0.2
					c-0.04-0.02-0.08-0.04-0.12-0.07c-0.57-0.37-1.14-0.75-1.72-1.13c-0.02-0.01-0.05-0.02-0.06-0.04c-0.02-0.03-0.02-0.07-0.03-0.1
					c0.03,0,0.07-0.02,0.09-0.01c0.09,0.04,0.17,0.1,0.26,0.14c0.16,0.07,0.26,0.05,0.32-0.12c0.12-0.36,0.24-0.72,0.34-1.08
					c0.04-0.13-0.01-0.24-0.1-0.33c-0.08-0.07-0.16-0.14-0.24-0.2C168.83,127.02,168.8,126.97,168.86,126.89z"/>
				<path d="M164.79,126.38c0.24,0.13,0.46,0.27,0.7,0.36c0.26,0.1,0.53,0.19,0.8,0.24c0.29,0.05,0.56-0.04,0.78-0.27
					c0.1-0.12,0.1-0.14-0.04-0.19c-0.62-0.2-1.15-0.57-1.58-1.08c-0.15-0.18-0.28-0.38-0.34-0.62c-0.08-0.31,0.04-0.58,0.33-0.68
					c0.14-0.05,0.31-0.06,0.46-0.05c0.32,0.02,0.61,0.16,0.88,0.32c0.4,0.23,0.78,0.5,1.09,0.86c0.29,0.33,0.49,0.7,0.48,1.16
					c-0.02,0.63-0.4,1.06-0.99,1.1c-0.35,0.02-0.7-0.06-1.03-0.18c-0.52-0.18-0.99-0.46-1.46-0.76
					C164.76,126.55,164.74,126.48,164.79,126.38z M167.42,125.76c-0.02-0.59-0.25-0.93-0.65-1.15c-0.2-0.11-0.4-0.05-0.54,0.14
					c-0.17,0.24-0.21,0.5-0.1,0.78c0.2,0.49,0.57,0.75,1.04,0.86c0.03,0.01,0.1-0.04,0.11-0.07
					C167.35,126.1,167.4,125.88,167.42,125.76z"/>
				<path d="M148.85,114.24c0.03,0.04,0.06,0.07,0.08,0.11c0.15,0.18,0.3,0.35,0.43,0.54c0.15,0.22,0.27,0.46,0.25,0.75
					c-0.01,0.2-0.1,0.33-0.29,0.35c-0.18,0.01-0.37,0-0.55-0.05c-0.41-0.12-0.78-0.35-1.12-0.62c-0.25-0.2-0.49-0.42-0.71-0.67
					c-0.13-0.14-0.23-0.34-0.29-0.53c-0.12-0.36,0.05-0.58,0.4-0.57c0.16,0,0.32,0.04,0.48,0.06c0.04,0.01,0.09,0.02,0.15,0
					c-0.03-0.04-0.06-0.07-0.09-0.11c-0.15-0.19-0.31-0.38-0.45-0.58c-0.1-0.14-0.14-0.31-0.11-0.49c0.03-0.16,0.11-0.26,0.26-0.27
					c0.13-0.01,0.28,0,0.4,0.04c0.66,0.24,1.23,0.62,1.71,1.17c0.13,0.15,0.23,0.32,0.26,0.53c0.03,0.24-0.07,0.4-0.3,0.41
					c-0.12,0-0.25-0.03-0.38-0.05c-0.04-0.01-0.08-0.02-0.13-0.03C148.86,114.23,148.85,114.23,148.85,114.24z M147.41,114.5
					c0.02,0.2,0.09,0.38,0.21,0.52c0.19,0.24,0.43,0.4,0.7,0.5c0.29,0.1,0.47-0.04,0.47-0.38c0-0.22-0.1-0.4-0.22-0.56
					c-0.15-0.19-0.32-0.37-0.48-0.55c-0.16-0.19-0.49-0.13-0.59,0.1C147.46,114.25,147.44,114.38,147.41,114.5z M148.93,113.37
					c-0.05-0.11-0.08-0.24-0.15-0.35c-0.15-0.21-0.36-0.35-0.59-0.43c-0.17-0.06-0.26,0-0.3,0.18c-0.04,0.18,0,0.35,0.1,0.48
					c0.15,0.19,0.32,0.37,0.46,0.56c0.11,0.15,0.32,0.1,0.39-0.08C148.88,113.63,148.9,113.51,148.93,113.37z"/>
				<path d="M145.74,114c-0.21-0.14-0.39-0.26-0.57-0.38c-0.61-0.4-1.23-0.81-1.84-1.21c-0.08-0.05-0.13-0.12-0.1-0.21
					c0.02-0.06,0.09-0.12,0.15-0.13c0.14-0.04,0.29-0.06,0.44-0.07c0.31-0.02,0.62-0.05,0.94-0.05c0.49,0,0.65-0.24,0.58-0.78
					c-0.05-0.38-0.27-0.67-0.62-0.83c-0.07-0.03-0.15-0.05-0.23-0.05c-0.19-0.01-0.25,0.07-0.21,0.27c0.04,0.19-0.03,0.27-0.21,0.21
					c-0.22-0.07-0.38-0.22-0.49-0.44c-0.08-0.15-0.02-0.32,0.14-0.37c0.12-0.04,0.25-0.05,0.37-0.03c0.39,0.05,0.73,0.26,1.06,0.48
					c0.36,0.26,0.69,0.56,0.91,0.97c0.11,0.2,0.16,0.4,0.1,0.63c-0.03,0.14-0.11,0.24-0.24,0.27c-0.13,0.03-0.27,0.05-0.4,0.05
					c-0.32,0.01-0.64,0.01-0.96,0.02c-0.11,0-0.22,0.02-0.3,0.13c-0.05,0.06-0.06,0.12,0.02,0.17c0.27,0.17,0.54,0.36,0.81,0.53
					c0.21,0.13,0.42,0.18,0.62-0.02c0.02-0.02,0.06-0.02,0.09-0.01c0.04,0.02,0.07,0.05,0.1,0.07c0.1,0.07,0.14,0.15,0.07,0.27
					C145.89,113.66,145.82,113.82,145.74,114z"/>
				<path d="M158.06,119.34c0.04,0.01,0.08,0.02,0.12,0.04c0.54,0.19,1.07,0.37,1.61,0.56c0.11,0.04,0.21,0.09,0.31,0.15
					c0.07,0.04,0.08,0.1,0.05,0.19c-0.07,0.16-0.13,0.32-0.17,0.49c-0.14,0.54-0.26,1.08-0.39,1.62c-0.06,0.23-0.01,0.42,0.15,0.58
					c0.11,0.11,0.24,0.21,0.37,0.31c0.03,0.02,0.07,0.04,0.09,0.07c0.02,0.03,0.03,0.08,0.04,0.12c-0.04,0-0.08,0-0.11-0.01
					c-0.76-0.49-1.52-0.99-2.27-1.49c-0.02-0.01-0.05-0.03-0.06-0.05c-0.01-0.03-0.01-0.06-0.02-0.1c0.03,0,0.06-0.02,0.09,0
					c0.09,0.04,0.17,0.1,0.26,0.15c0.04,0.02,0.09,0.05,0.14,0.06c0.24,0.09,0.36,0.03,0.42-0.24c0.11-0.48,0.22-0.95,0.33-1.43
					c0.06-0.26,0.04-0.31-0.18-0.43c-0.19-0.11-0.4-0.19-0.6-0.28C158.11,119.6,158.05,119.51,158.06,119.34z"/>
				<path d="M136.28,107.68c0.07,0.03,0.14,0.05,0.23,0.08c-0.01-0.06,0-0.11-0.02-0.15c-0.09-0.21-0.17-0.43-0.27-0.64
					c-0.02-0.03-0.09-0.07-0.12-0.06c-0.12,0.04-0.24,0.09-0.36,0.14c-0.09,0.04-0.09,0.1-0.04,0.17c0.04,0.05,0.09,0.08,0.12,0.13
					c0.03,0.04,0.04,0.09,0.07,0.14c-0.01,0.01-0.02,0.01-0.03,0.02c-0.02-0.01-0.04-0.01-0.05-0.02c-0.36-0.24-0.72-0.47-1.08-0.71
					c-0.04-0.03-0.06-0.09-0.08-0.14c0.01-0.01,0.02-0.02,0.04-0.03c0.09,0.04,0.19,0.08,0.28,0.12c0.15,0.06,0.29,0.07,0.45,0.02
					c0.15-0.05,0.31-0.1,0.46-0.14c0.07-0.02,0.09-0.06,0.05-0.13c-0.22-0.42-0.43-0.84-0.67-1.25c-0.08-0.14-0.21-0.25-0.33-0.37
					c-0.05-0.05-0.1-0.09-0.05-0.18c0.04,0.02,0.07,0.04,0.1,0.06c0.5,0.32,0.99,0.64,1.49,0.97c0.07,0.04,0.13,0.08,0.08,0.19
					c-0.08-0.03-0.16-0.06-0.27-0.11c0.02,0.08,0.02,0.13,0.04,0.17c0.08,0.19,0.17,0.38,0.26,0.57c0.04,0.08,0.09,0.11,0.17,0.07
					c0.09-0.04,0.19-0.08,0.28-0.12c0.11-0.05,0.12-0.11,0.03-0.21c-0.03-0.04-0.08-0.06-0.11-0.1c-0.03-0.04-0.04-0.09-0.06-0.13
					c0.01-0.01,0.02-0.02,0.03-0.02c0.03,0.01,0.06,0.02,0.08,0.04c0.34,0.22,0.68,0.44,1.01,0.66c0.06,0.04,0.12,0.08,0.07,0.17
					c-0.01,0-0.02,0.01-0.03,0c-0.39-0.26-0.77-0.09-1.15,0.02c-0.07,0.02-0.07,0.06-0.04,0.12c0.21,0.42,0.42,0.84,0.65,1.24
					c0.1,0.18,0.28,0.31,0.42,0.46c0.04,0.04,0.06,0.1,0.08,0.14c-0.01,0.01-0.02,0.02-0.03,0.03c-0.02-0.01-0.05-0.02-0.07-0.04
					c-0.52-0.34-1.03-0.68-1.55-1.01C136.29,107.82,136.23,107.78,136.28,107.68z"/>
				<path d="M141.6,111.21c-0.1-0.07-0.19-0.12-0.27-0.18c-0.02-0.02-0.03-0.09-0.01-0.12c0.06-0.17,0.13-0.34,0.19-0.51
					c0.01-0.04,0.02-0.11,0-0.13c-0.19-0.13-0.38-0.26-0.58-0.39c-0.1,0.24-0.18,0.46-0.28,0.71c-0.11-0.07-0.21-0.13-0.3-0.2
					c-0.02-0.01-0.02-0.08-0.01-0.11c0.06-0.17,0.12-0.35,0.19-0.51c0.04-0.09,0.02-0.13-0.06-0.18c-0.14-0.08-0.27-0.19-0.41-0.26
					c-0.11-0.06-0.13-0.13-0.08-0.24c0.02-0.03,0.03-0.06,0.04-0.11c0.21,0.14,0.41,0.27,0.63,0.41c0.05-0.15,0.11-0.29,0.15-0.43
					c0.01-0.02-0.03-0.08-0.06-0.1c-0.13-0.09-0.27-0.18-0.4-0.26c-0.19-0.12-0.19-0.12-0.07-0.36c0.21,0.13,0.41,0.26,0.63,0.41
					c0.09-0.24,0.18-0.47,0.28-0.72c0.12,0.08,0.23,0.15,0.35,0.22c-0.06,0.16-0.12,0.32-0.18,0.47c-0.11,0.29-0.13,0.22,0.12,0.39
					c0.13,0.08,0.25,0.16,0.38,0.24c0.01,0.01,0.02,0.01,0.05,0.01c0.09-0.23,0.17-0.46,0.27-0.7c0.1,0.06,0.19,0.12,0.28,0.18
					c0.02,0.02,0.03,0.08,0.02,0.11c-0.06,0.18-0.13,0.36-0.2,0.54c-0.03,0.08-0.02,0.13,0.06,0.17c0.18,0.11,0.36,0.24,0.54,0.35
					c0.12,0.07,0.14,0.14,0.07,0.26c-0.01,0.02-0.02,0.05-0.04,0.09c-0.25-0.16-0.5-0.32-0.77-0.5c-0.06,0.15-0.11,0.29-0.15,0.43
					c-0.01,0.03,0.04,0.08,0.07,0.1c0.17,0.12,0.34,0.23,0.51,0.34c0.18,0.12,0.18,0.14,0.06,0.36c-0.24-0.16-0.49-0.32-0.75-0.49
					C141.78,110.74,141.69,110.97,141.6,111.21z M141.18,109.14c-0.06,0.15-0.11,0.27-0.16,0.39c-0.01,0.03,0,0.09,0.02,0.1
					c0.19,0.13,0.38,0.25,0.58,0.39c0.06-0.15,0.11-0.28,0.15-0.42c0.01-0.02,0-0.07-0.02-0.08
					C141.57,109.4,141.39,109.28,141.18,109.14z"/>
				<path d="M161.37,124.29c0.84-0.37,1.66-0.74,2.48-1.1c0-0.01,0-0.03,0-0.04c-0.03-0.02-0.06-0.05-0.09-0.07
					c-0.46-0.3-0.92-0.6-1.38-0.9c-0.22-0.14-0.44-0.21-0.66-0.01c-0.02,0.02-0.07,0.01-0.1,0c-0.06-0.03-0.11-0.08-0.17-0.12
					c0.13-0.28,0.25-0.55,0.38-0.83c0.02,0.01,0.04,0.02,0.05,0.03c0.24,0.18,0.46,0.36,0.71,0.52c0.66,0.44,1.34,0.87,2,1.3
					c0.04,0.03,0.08,0.06,0.14,0.11c-0.05,0.03-0.07,0.06-0.1,0.07c-0.81,0.42-1.58,0.9-2.33,1.44c-0.1,0.07-0.18,0.09-0.3,0.01
					c-0.16-0.11-0.34-0.2-0.51-0.3C161.45,124.37,161.42,124.33,161.37,124.29z"/>
				<path d="M132.7,104.27c0.01,0.15,0.01,0.26,0.03,0.37c0.08,0.41,0.34,0.67,0.65,0.89c0.27,0.19,0.55,0.34,0.88,0.35
					c0.04,0,0.08,0.08,0.11,0.13c0.01,0.01-0.05,0.08-0.09,0.09c-0.18,0.06-0.37,0.05-0.55-0.02c-0.7-0.27-1.27-0.71-1.65-1.41
					c-0.13-0.24-0.2-0.51-0.18-0.79c0.02-0.3,0.19-0.49,0.47-0.53c0.3-0.04,0.58,0.06,0.84,0.21c0.35,0.2,0.66,0.44,0.91,0.78
					c0.18,0.24,0.29,0.51,0.29,0.82c0,0.16-0.05,0.18-0.17,0.1c-0.46-0.3-0.91-0.6-1.37-0.89
					C132.82,104.35,132.78,104.32,132.7,104.27z M133.64,104.7c0-0.14,0-0.23-0.01-0.32c-0.05-0.34-0.3-0.63-0.57-0.67
					c-0.15-0.02-0.22,0.03-0.27,0.2c-0.06,0.19-0.05,0.21,0.1,0.31c0.13,0.09,0.27,0.17,0.4,0.26
					C133.39,104.55,133.49,104.61,133.64,104.7z"/>
				<path d="M125.08,99.3c-0.02,0.26,0.03,0.47,0.14,0.67c0.18,0.33,0.46,0.55,0.77,0.72c0.18,0.1,0.36,0.17,0.57,0.16
					c0.09-0.01,0.12,0.06,0.12,0.13c0,0.03-0.05,0.08-0.09,0.1c-0.17,0.06-0.35,0.06-0.52-0.01c-0.72-0.29-1.3-0.75-1.64-1.51
					c-0.08-0.19-0.12-0.41-0.13-0.62c-0.02-0.36,0.21-0.59,0.55-0.57c0.16,0.01,0.33,0.05,0.48,0.11c0.41,0.18,0.76,0.46,1.04,0.83
					c0.17,0.23,0.28,0.49,0.3,0.78c0,0.06-0.02,0.12-0.03,0.18c-0.05-0.02-0.11-0.03-0.16-0.06c-0.42-0.27-0.84-0.55-1.27-0.82
					C125.18,99.36,125.14,99.34,125.08,99.3z M125.94,99.69c0.02-0.29-0.03-0.53-0.19-0.72c-0.09-0.1-0.21-0.19-0.33-0.24
					c-0.14-0.06-0.23,0-0.28,0.13c-0.07,0.2-0.05,0.27,0.09,0.36c0.14,0.09,0.28,0.18,0.42,0.27
					C125.74,99.56,125.83,99.61,125.94,99.69z"/>
				<path d="M130.85,102.33c0,0.07-0.01,0.11-0.01,0.15c-0.01,0.32-0.01,0.64-0.04,0.96c-0.03,0.44,0.11,0.64,0.52,0.8
					c0.1,0.04,0.15,0.1,0.17,0.22c-0.08,0-0.15,0-0.21-0.01c-0.44-0.11-0.8-0.35-1.09-0.72c-0.12-0.16-0.17-0.35-0.17-0.55
					c0.02-0.4,0.04-0.8,0.06-1.2c0.01-0.1-0.01-0.17-0.11-0.22c-0.08-0.04-0.15-0.1-0.23-0.15c-0.08-0.05-0.1-0.11-0.06-0.23
					c0.14,0.07,0.26,0.13,0.4,0.2c0.01-0.13,0.02-0.26,0.04-0.38c0.01-0.12,0.06-0.16,0.17-0.11c0.17,0.07,0.34,0.13,0.51,0.19
					c0.07,0.03,0.1,0.07,0.09,0.16c-0.02,0.17-0.03,0.34-0.05,0.51c-0.01,0.1,0.02,0.16,0.1,0.21c0.19,0.11,0.37,0.24,0.55,0.35
					c0.12,0.08,0.12,0.08,0.08,0.27C131.35,102.63,131.11,102.49,130.85,102.33z"/>
				<path d="M128.73,102.85c-0.04-0.02-0.07-0.04-0.1-0.06c-0.48-0.31-0.95-0.63-1.43-0.94c-0.06-0.04-0.12-0.08-0.08-0.18
					c0.08,0.04,0.15,0.08,0.22,0.11c0.13,0.06,0.19,0.03,0.2-0.11c0.02-0.41,0.03-0.82,0.03-1.24c0-0.2-0.14-0.31-0.28-0.41
					c-0.06-0.04-0.13-0.08-0.09-0.19c0.22,0.1,0.43,0.21,0.65,0.31c0.01,0,0.01,0.01,0.02,0.01c0.44,0.2,0.44,0.14,0.46,0.64
					c0,0.03,0.02,0.06,0.03,0.09c0.08-0.03,0.14-0.05,0.21-0.07c0.35-0.1,0.79,0.15,0.89,0.52c0.02,0.06,0,0.16-0.04,0.2
					c-0.04,0.04-0.14,0.07-0.19,0.04c-0.14-0.09-0.27-0.21-0.39-0.32c-0.07-0.06-0.11-0.15-0.18-0.19c-0.15-0.1-0.32-0.01-0.33,0.18
					c-0.01,0.3-0.02,0.6-0.02,0.91c0,0.25,0.15,0.39,0.33,0.51C128.7,102.69,128.77,102.73,128.73,102.85z"/>
				<path d="M122.82,98.29c0.09-0.11,0.16-0.21,0.23-0.3c0.08-0.11,0.17-0.22,0.25-0.34c0.09-0.13,0.08-0.21-0.02-0.32
					c-0.05-0.05-0.11-0.09-0.16-0.14c-0.04-0.04-0.06-0.1-0.08-0.15c0.01-0.01,0.02-0.02,0.03-0.03c0.03,0.02,0.06,0.03,0.09,0.05
					c0.28,0.18,0.57,0.37,0.85,0.55c0.06,0.04,0.12,0.08,0.08,0.17c-0.01,0-0.02,0.01-0.03,0c-0.33-0.11-0.33-0.11-0.55,0.17
					c-0.22,0.29-0.45,0.58-0.67,0.87c-0.06,0.09-0.13,0.1-0.21,0.05c-0.13-0.07-0.22-0.18-0.28-0.32c-0.26-0.69-0.52-1.38-0.77-2.07
					c-0.08-0.23-0.2-0.42-0.39-0.56c-0.04-0.03-0.06-0.1-0.09-0.15c0.01-0.01,0.02-0.02,0.03-0.03c0.03,0.01,0.06,0.03,0.08,0.04
					c0.43,0.28,0.85,0.55,1.28,0.83c0.06,0.04,0.12,0.08,0.07,0.18c-0.06-0.02-0.11-0.05-0.16-0.07c-0.08-0.03-0.12,0-0.09,0.1
					c0.03,0.11,0.07,0.22,0.11,0.32c0.11,0.32,0.21,0.64,0.32,0.95C122.76,98.18,122.78,98.22,122.82,98.29z"/>
				<path d="M154.99,118.82c-0.05-0.02-0.09-0.04-0.12-0.06c-0.96-0.63-1.92-1.25-2.88-1.88c-0.03-0.02-0.07-0.05-0.09-0.09
					c-0.02-0.04-0.03-0.12-0.01-0.14c0.03-0.04,0.1-0.05,0.15-0.06c0.03,0,0.07,0.03,0.1,0.05c0.95,0.62,1.9,1.24,2.85,1.85
					c0.02,0.02,0.06,0.03,0.07,0.05c0.03,0.05,0.06,0.11,0.05,0.14C155.1,118.75,155.04,118.78,154.99,118.82z"/>
			</g>
		</g>
		<line class="st19" x1="179.33" y1="125" x2="177.75" y2="127.38"/>
		<polygon class="st19" points="120,91.08 177.75,127.38 186.17,138.92 173.83,136.5 120,100.83 		"/>
		<path class="st23" d="M120,91.08v9.75l53.83,35.67l12.33,2.42l1.67-2.5l-8.5-11.42l-57.5-35.58c0,0-0.18,0.6-0.61,1.01
			S120,91.08,120,91.08z"/>
	</g>
</g>
<path class="st24" d="M115.83,47c0,0-0.72-0.27-1.43-0.77s-0.74-1.07-0.74-1.07l-5.84,2.37l3.26,1.42L115.83,47z"/>
<path class="st24" d="M121.83,89.42c0,0-0.18,0.6-0.61,1.01S120,91.08,120,91.08l3.54,2.23l2.47-1.31L121.83,89.42z"/>
<g>
	<path d="M58.75,113.14h1.18l-0.08,0.66h-1.19c-0.1,0.6-0.18,1.15-0.28,1.73h-0.53l0.29-1.73h-0.96c-0.11,0.6-0.19,1.15-0.3,1.73
		h-0.55l0.28-1.73h-0.99l0.09-0.66h1c0.06-0.37,0.12-0.7,0.17-1.07h-1l0.09-0.66h1c0.1-0.58,0.19-1.15,0.29-1.73h0.56l-0.3,1.73
		h0.97c0.1-0.58,0.18-1.15,0.28-1.73h0.52l-0.27,1.73h1.17l-0.09,0.66h-1.18L58.75,113.14z M58.39,112.07h-0.94
		c-0.06,0.37-0.13,0.7-0.19,1.07h0.96L58.39,112.07z"/>
	<path d="M65.17,115.35c0.1,0.06,0.1,0.28,0,0.34c-0.82-0.01-1.27-0.02-1.67-0.02s-1.69,0.02-1.69,0.02c-0.1-0.06-0.1-0.28,0-0.34
		c0.55-0.03,1.03-0.07,1.03-0.9v-3.13c0-0.5-0.06-0.54-0.19-0.54c-0.14,0-0.5,0.02-1.04,0.25c-0.14-0.1-0.21-0.26-0.22-0.43
		c0.87-0.36,1.55-0.6,2.16-0.88c0.23-0.11,0.4-0.15,0.5-0.15c0.09,0,0.17,0.04,0.17,0.17c0,0-0.08,0.57-0.08,1.1v3.61
		C64.14,115.28,64.62,115.32,65.17,115.35z"/>
	<path d="M65.91,112.69c0-2,1.01-3.12,2.3-3.12c1.01,0,2.24,0.67,2.24,3.03c0,2.38-1.3,3.17-2.29,3.17
		C66.7,115.77,65.91,114.33,65.91,112.69z M67.34,112.8c0,0.85,0.01,2.55,0.83,2.55c0.4,0,0.86-0.55,0.86-2.95
		c0-1.77-0.43-2.41-0.82-2.41C67.81,109.99,67.34,110.37,67.34,112.8z"/>
</g>
<g>
	<path d="M190.5,106.3h1.18l-0.08,0.66h-1.19c-0.1,0.6-0.18,1.15-0.28,1.73h-0.53l0.29-1.73h-0.96c-0.11,0.6-0.19,1.15-0.3,1.73
		h-0.55l0.28-1.73h-0.99l0.09-0.66h1c0.06-0.37,0.12-0.7,0.17-1.07h-1l0.09-0.66h1c0.1-0.58,0.19-1.15,0.29-1.73h0.56l-0.3,1.73
		h0.97c0.1-0.58,0.18-1.15,0.28-1.73h0.52l-0.27,1.73h1.17l-0.09,0.66h-1.18L190.5,106.3z M190.14,105.24h-0.94
		c-0.06,0.37-0.13,0.7-0.19,1.07h0.96L190.14,105.24z"/>
	<path d="M197.2,106.9c0,0.12-0.15,0.31-0.29,0.31h-0.84v0.4c0,0.83,0.38,0.87,0.93,0.9c0.1,0.06,0.1,0.28,0,0.34
		c-0.82-0.01-1.14-0.02-1.54-0.02s-1.56,0.02-1.56,0.02c-0.1-0.06-0.1-0.28,0-0.34c0.55-0.03,0.93-0.07,0.93-0.9v-0.4h-1.77
		c-0.24,0-0.28-0.02-0.33-0.07l-0.15-0.18c-0.06-0.11-0.14-0.19-0.14-0.23c0-0.03,0.05-0.1,0.07-0.13c0.82-1.23,1.89-2.96,2.66-3.87
		h0.9v4.01h0.98C197.16,106.74,197.2,106.8,197.2,106.9z M192.99,106.74h1.84v-2.92C194.3,104.55,193.49,105.91,192.99,106.74z"/>
</g>
<polygon class="st24" points="125.75,71.46 122.12,73.25 122.12,75.75 124.38,74.58 "/>
<g>
</g>
<g>
</g>
<g>
</g>
<g>
</g>
<g>
</g>
<g>
</g>
<g>
</g>
<g>
</g>
<g>
</g>
<g>
</g>
<g>
</g>
<g>
</g>
<g>
</g>
<g>
</g>
<g>
</g>
</svg>
