<?xml version="1.0" encoding="utf-8"?>
<!-- Generator: Adobe Illustrator 23.0.2, SVG Export Plug-In . SVG Version: 6.00 Build 0)  -->
<svg version="1.1" id="Layer_1" xmlns="http://www.w3.org/2000/svg" xmlns:xlink="http://www.w3.org/1999/xlink" x="0px" y="0px"
	 viewBox="0 0 207.23 70.67" style="enable-background:new 0 0 207.23 70.67;" xml:space="preserve">
<style type="text/css">
	.st0{opacity:0.5;}
	.st1{opacity:0.4;fill:#1B1F8A;}
	.st2{fill:none;stroke:#1B1F8A;stroke-width:0.35;stroke-miterlimit:10;}
	.st3{opacity:0.2;enable-background:new    ;}
	.st4{fill:#1B1F8A;}
	.st5{fill:none;stroke:#000000;stroke-width:0.5;stroke-linecap:round;stroke-miterlimit:10;}
	.st6{fill:none;stroke:#000000;stroke-width:0.35;stroke-miterlimit:10;}
	.st7{opacity:0.5;fill:#1B1F8A;}
	.st8{opacity:0.5;fill:#FFFFFF;}
	.st9{fill:none;stroke:#000000;stroke-width:0.35;stroke-miterlimit:10;stroke-dasharray:1.9095,1.9095;}
	.st10{fill:none;stroke:#000000;stroke-miterlimit:10;}
</style>
<g class="st0">
	<circle class="st1" cx="97.91" cy="35.34" r="9.25"/>
	<circle class="st2" cx="97.91" cy="35.34" r="9.25"/>
</g>
<g class="st3">
	<g>
		<g>
			<path class="st4" d="M132.38,35.25c0,0-3.7-8.09-10.54-17.46C115,8.44,108.38,2.55,108.38,2.55S99.76,3.5,88.84,7.06
				c-10.92,3.56-18.96,8.15-18.96,8.15s-1.76,9.01-1.76,20.04c0,11.03,1.87,20.55,1.87,20.55s8.04,4.46,18.7,7.89
				c10.66,3.42,19.99,4.52,19.99,4.52s6.73-6.17,13.33-15.43C128.6,43.52,132.38,35.25,132.38,35.25"/>
		</g>
	</g>
</g>
<path class="st5" d="M132.38,35.25c0,0-3.7-8.09-10.54-17.46C115,8.44,108.38,2.55,108.38,2.55S99.76,3.5,88.84,7.06
	c-10.92,3.56-18.96,8.15-18.96,8.15s-1.76,9.01-1.76,20.04c0,11.03,1.87,20.55,1.87,20.55s8.04,4.46,18.7,7.89
	c10.66,3.42,19.99,4.52,19.99,4.52s6.73-6.17,13.33-15.43C128.6,43.52,132.38,35.25,132.38,35.25z"/>
<line class="st6" x1="97.91" y1="35.25" x2="69.88" y2="15.21"/>
<line class="st6" x1="97.91" y1="35.25" x2="69.99" y2="55.8"/>
<line class="st6" x1="97.91" y1="35.25" x2="108.68" y2="68.21"/>
<circle cx="132.38" cy="35.34" r="1.04"/>
<circle cx="108.38" cy="2.55" r="1.04"/>
<circle cx="69.88" cy="15.21" r="1.04"/>
<circle cx="69.99" cy="55.8" r="1.04"/>
<circle cx="108.68" cy="68.21" r="1.04"/>
<g>
	<path d="M132.89,38.39c0,0.24,0.19,0.43,0.43,0.43c0.24,0,0.43-0.19,0.43-0.43c0-0.24-0.19-0.43-0.43-0.43
		C133.07,37.97,132.89,38.15,132.89,38.39 M133.29,40.65c0.08-0.37,0.16-0.72,0.16-0.85s-0.05-0.21-0.16-0.21
		c-0.29,0-0.69,0.08-1.12,0.13c-0.08,0.08-0.05,0.16,0,0.24l0.37,0.03c0.11,0.03,0.16,0.11,0.16,0.19c0,0.08-0.03,0.21-0.08,0.45
		l-0.29,1.33c-0.19,0.88-0.27,1.44-0.43,2.08c-0.21,0.77-0.51,0.93-0.69,0.93c-0.24,0-0.19-0.37-0.64-0.37
		c-0.11,0-0.24,0.08-0.24,0.27c0,0.29,0.32,0.45,0.72,0.45c1.14,0,1.62-1.68,2.08-3.89L133.29,40.65z"/>
	<path d="M135.5,44.78c-0.29,0-0.67-0.16-0.8-0.69c-0.08-0.35-0.08-0.88-0.08-1.33c0-0.45,0-0.93,0.11-1.28
		c0.13-0.51,0.53-0.64,0.77-0.64c0.35,0,0.67,0.21,0.77,0.59c0.11,0.32,0.11,0.77,0.11,1.33c0,0.45,0,0.93-0.08,1.3
		C136.19,44.65,135.76,44.78,135.5,44.78 M136.96,42.84c0-0.69-0.08-1.2-0.37-1.62c-0.19-0.29-0.59-0.53-1.09-0.53
		c-1.44,0-1.44,1.7-1.44,2.16c0,0.45,0,2.13,1.44,2.13C136.96,44.97,136.96,43.29,136.96,42.84z"/>
</g>
<g>
	<path d="M97.09,40.18c0.08-0.35,0.19-0.69,0.19-0.85c0-0.13-0.08-0.19-0.19-0.19c-0.29,0-0.69,0.05-1.12,0.11
		c-0.08,0.08-0.05,0.19,0,0.27l0.37,0.03c0.11,0,0.16,0.08,0.16,0.19c0,0.08-0.03,0.21-0.08,0.45L96,42.04
		c-0.08,0.29-0.16,0.67-0.16,0.83c0,0.16,0.11,0.29,0.37,0.29c0.43,0,0.83-0.29,1.25-0.83c-0.03-0.08-0.08-0.16-0.21-0.16
		c-0.24,0.27-0.48,0.45-0.59,0.45c-0.05,0-0.08-0.05-0.08-0.16c0-0.08,0.03-0.27,0.08-0.51L97.09,40.18 M96.69,37.94
		c0,0.24,0.19,0.43,0.43,0.43c0.24,0,0.43-0.19,0.43-0.43c0-0.24-0.19-0.45-0.43-0.45C96.88,37.49,96.69,37.7,96.69,37.94z"/>
</g>
<g>
	<path class="st7" d="M79.04,36.6l0.96-0.93c1.41-1.25,1.94-1.73,1.94-2.64c0-1.04-0.8-1.76-1.89-1.76c-1.04,0-1.7,0.83-1.7,1.62
		c0,0.51,0.45,0.51,0.48,0.51c0.16,0,0.48-0.11,0.48-0.45c0-0.24-0.16-0.48-0.48-0.48c-0.08,0-0.11,0-0.13,0
		c0.21-0.59,0.69-0.91,1.22-0.91c0.83,0,1.2,0.72,1.2,1.46c0,0.72-0.43,1.44-0.93,2l-1.73,1.92c-0.11,0.11-0.11,0.13-0.11,0.35h3.36
		l0.24-1.57h-0.21c-0.05,0.27-0.11,0.67-0.21,0.8c-0.05,0.08-0.64,0.08-0.85,0.08H79.04"/>
	<path class="st7" d="M87.64,33.4H84.2c-0.43,0-0.91,0.77-1.09,1.3l0.13,0.03c0.29-0.51,0.59-0.69,1.01-0.69h0.16
		c-0.59,2.45-1.04,2.58-1.3,2.64c-0.21,0.05-0.35,0.32-0.37,0.4c0,0.05,0,0.08,0,0.11c0,0.16,0.11,0.21,0.21,0.21
		c0.83,0,1.38-1.2,1.89-3.36h1.04c-0.27,1.01-0.48,1.89-0.59,2.42c-0.05,0.19-0.08,0.32-0.08,0.45c0,0.35,0.19,0.48,0.59,0.48
		c0.4,0,0.88-0.45,1.14-0.75l-0.13-0.13c-0.37,0.32-0.75,0.4-0.85,0.4c-0.11,0-0.16-0.08-0.16-0.24c0-0.11,0-0.21,0.05-0.35
		c0.27-1.25,0.45-1.97,0.56-2.29H87c0.29,0,0.48-0.21,0.69-0.51L87.64,33.4"/>
</g>
<g>
	<path d="M117.06,18.24l-0.16-0.13c0,0.03-0.35,0.45-0.75,0.45c-0.19,0-0.43-0.13-0.59-0.24c-0.24-0.13-0.4-0.21-0.56-0.21
		c-0.32,0-0.51,0.21-0.96,0.72l0.13,0.13c0,0,0.35-0.43,0.75-0.43c0.21,0,0.43,0.13,0.59,0.21c0.24,0.13,0.4,0.21,0.56,0.21
		C116.42,18.96,116.58,18.74,117.06,18.24"/>
	<path d="M113.15,23.43c-0.13,0.61-0.19,1.09-0.19,1.52c0,1.28,0.56,1.7,1.12,1.7c0.67,0,1.86-0.75,2.45-3.22
		c0.11-0.56,0.16-1.01,0.16-1.41c0-1.3-0.59-1.78-1.09-1.78C114.77,20.23,113.65,21.27,113.15,23.43 M115.84,23.59
		c-0.32,1.3-1.01,2.74-1.65,2.74c-0.43,0-0.59-0.59-0.59-1.33c0-0.43,0.05-0.93,0.16-1.41H115.84z M115.92,23.3h-2.08
		c0.27-1.17,0.93-2.74,1.62-2.74c0.43,0,0.61,0.56,0.61,1.33C116.08,22.31,116.02,22.79,115.92,23.3z"/>
</g>
<g>
	<path class="st4" d="M111.66,38.24l-0.08-0.13c-0.37,0.13-1.17,0.69-1.36,1.36c-0.03,0.19-0.08,0.37-0.08,0.53
		c0,0.61,0.37,0.99,1.17,1.04c-0.13,0.56-0.24,0.96-0.24,1.25l0.43,0.21l0.11-0.11c-0.03-0.11-0.05-0.21-0.05-0.35
		c0-0.21,0.05-0.53,0.19-1.01c0.45-0.05,1.6-0.35,1.92-1.62c0.03-0.16,0.05-0.32,0.05-0.45c0-0.51-0.24-0.91-0.83-0.91
		c-0.91,0-1.09,1.12-1.12,1.2l-0.4,1.57c-0.51-0.03-0.67-0.32-0.67-0.72C110.7,39.52,110.97,38.7,111.66,38.24 M111.8,40.83
		l0.43-1.68c0.16-0.67,0.35-0.83,0.59-0.83c0.24,0,0.37,0.21,0.37,0.53C113.18,39.5,112.86,40.69,111.8,40.83z"/>
	<path class="st4" d="M118.83,40.24c0.08,0,0.21,0,0.21-0.16c0-0.16-0.13-0.16-0.24-0.16h-4.13c-0.08,0-0.24,0-0.24,0.16
		c0,0.16,0.16,0.16,0.24,0.16H118.83 M118.8,38.86c0.11,0,0.24,0,0.24-0.16c0-0.13-0.13-0.13-0.21-0.13h-4.15
		c-0.08,0-0.24,0-0.24,0.13c0,0.16,0.16,0.16,0.24,0.16H118.8z"/>
	<path class="st4" d="M121.38,40.91c-0.29,0-0.67-0.16-0.8-0.67c-0.08-0.37-0.08-0.91-0.08-1.36c0-0.45,0-0.93,0.08-1.28
		c0.13-0.51,0.53-0.61,0.8-0.61c0.35,0,0.67,0.19,0.77,0.56c0.11,0.35,0.11,0.8,0.11,1.33c0,0.45,0,0.93-0.08,1.33
		C122.05,40.77,121.62,40.91,121.38,40.91 M122.82,38.96c0-0.69-0.08-1.17-0.35-1.62c-0.21-0.29-0.59-0.53-1.09-0.53
		c-1.46,0-1.46,1.7-1.46,2.16c0,0.45,0,2.13,1.46,2.13C122.82,41.09,122.82,39.42,122.82,38.96z"/>
</g>
<path class="st4" d="M97.43,14.67l-0.11-0.19c-0.43,0.19-1.41,0.96-1.62,1.86c-0.05,0.27-0.08,0.51-0.08,0.75
	c0,0.83,0.43,1.33,1.41,1.41c-0.19,0.75-0.29,1.33-0.29,1.7l0.51,0.32l0.13-0.16c-0.05-0.13-0.08-0.27-0.08-0.45
	c0-0.32,0.08-0.75,0.24-1.41c0.56-0.05,2.02-0.48,2.42-2.24c0.05-0.21,0.08-0.43,0.08-0.61c0-0.69-0.32-1.22-1.04-1.22
	c-1.12,0-1.36,1.52-1.41,1.62l-0.48,2.18c-0.67-0.05-0.88-0.45-0.88-0.99C96.23,16.46,96.6,15.28,97.43,14.67 M97.59,18.24
	l0.53-2.32c0.21-0.91,0.48-1.14,0.8-1.14c0.32,0,0.45,0.29,0.45,0.75C99.37,16.4,98.97,18.03,97.59,18.24z"/>
<path class="st8" d="M113.89,35.37c0-7.14-4.68-13.18-11.14-15.23l-4.84,15.11L113.89,35.37z"/>
<path class="st6" d="M113.89,35.37c0-7.14-4.68-13.18-11.14-15.23"/>
<line class="st6" x1="97.91" y1="35.25" x2="108.38" y2="2.55"/>
<g>
	<g>
		<line class="st6" x1="97.91" y1="35.25" x2="98.91" y2="35.25"/>
		<line class="st9" x1="100.82" y1="35.25" x2="130.42" y2="35.25"/>
		<line class="st6" x1="131.38" y1="35.25" x2="132.38" y2="35.25"/>
	</g>
</g>
<path d="M98.88,35.25c0-0.53-0.43-0.97-0.97-0.97c-0.53,0-0.97,0.43-0.97,0.97c0,0.53,0.43,0.97,0.97,0.97
	C98.45,36.22,98.88,35.79,98.88,35.25"/>
<g>
	<g>
		<path class="st4" d="M110.29,35.25c-0.05-3.32-1.52-6.55-3.94-8.75c-1.2-1.1-2.61-1.96-4.13-2.5c-1.52-0.55-3.14-0.76-4.74-0.69
			l-0.04-0.85c1.72,0,3.42,0.3,5,0.95c1.57,0.64,3.01,1.6,4.2,2.79C109.05,28.57,110.38,31.93,110.29,35.25z"/>
		<g>
			<polygon class="st4" points="94,23.51 98.58,20.7 97.74,22.9 99.23,24.71 			"/>
		</g>
	</g>
</g>
<g>
	<g>
		<line class="st10" x1="97.91" y1="35.62" x2="91.4" y2="16.3"/>
		<g>
			<polygon points="90.28,12.95 93.79,17.02 91.49,16.55 89.94,18.31 			"/>
		</g>
	</g>
</g>
<g>
</g>
<g>
</g>
<g>
</g>
<g>
</g>
<g>
</g>
<g>
</g>
<g>
</g>
<g>
</g>
<g>
</g>
<g>
</g>
<g>
</g>
<g>
</g>
<g>
</g>
<g>
</g>
<g>
</g>
<g>
</g>
</svg>
